<svg viewBox="0 0 330 200" xmlns="http://www.w3.org/2000/svg"><g><g><g><g><g><line x1="48.875" y1="177" x2="43.875" y2="177" style="visibility: inherit;" fill="rgb(0, 0, 0)" stroke="rgb(204, 204, 204)" stroke-width="1px"></line><line x1="48.875" y1="164.35714285714286" x2="43.875" y2="164.35714285714286" style="visibility: inherit;" fill="rgb(0, 0, 0)" stroke="rgb(204, 204, 204)" stroke-width="1px"></line><line x1="48.875" y1="151.71428571428572" x2="43.875" y2="151.71428571428572" style="visibility: inherit;" fill="rgb(0, 0, 0)" stroke="rgb(204, 204, 204)" stroke-width="1px"></line><line x1="48.875" y1="139.07142857142858" x2="43.875" y2="139.07142857142858" style="visibility: inherit;" fill="rgb(0, 0, 0)" stroke="rgb(204, 204, 204)" stroke-width="1px"></line><line x1="48.875" y1="126.42857142857143" x2="43.875" y2="126.42857142857143" style="visibility: inherit;" fill="rgb(0, 0, 0)" stroke="rgb(204, 204, 204)" stroke-width="1px"></line><line x1="48.875" y1="113.78571428571428" x2="43.875" y2="113.78571428571428" style="visibility: inherit;" fill="rgb(0, 0, 0)" stroke="rgb(204, 204, 204)" stroke-width="1px"></line><line x1="48.875" y1="101.14285714285715" x2="43.875" y2="101.14285714285715" style="visibility: inherit;" fill="rgb(0, 0, 0)" stroke="rgb(204, 204, 204)" stroke-width="1px"></line><line x1="48.875" y1="88.5" x2="43.875" y2="88.5" style="visibility: inherit;" fill="rgb(0, 0, 0)" stroke="rgb(204, 204, 204)" stroke-width="1px"></line><line x1="48.875" y1="75.85714285714286" x2="43.875" y2="75.85714285714286" style="visibility: inherit;" fill="rgb(0, 0, 0)" stroke="rgb(204, 204, 204)" stroke-width="1px"></line><line x1="48.875" y1="63.21428571428571" x2="43.875" y2="63.21428571428571" style="visibility: inherit;" fill="rgb(0, 0, 0)" stroke="rgb(204, 204, 204)" stroke-width="1px"></line><line x1="48.875" y1="50.57142857142857" x2="43.875" y2="50.57142857142857" style="visibility: inherit;" fill="rgb(0, 0, 0)" stroke="rgb(204, 204, 204)" stroke-width="1px"></line><line x1="48.875" y1="37.928571428571445" x2="43.875" y2="37.928571428571445" style="visibility: inherit;" fill="rgb(0, 0, 0)" stroke="rgb(204, 204, 204)" stroke-width="1px"></line><line x1="48.875" y1="25.285714285714306" x2="43.875" y2="25.285714285714306" style="visibility: inherit;" fill="rgb(0, 0, 0)" stroke="rgb(204, 204, 204)" stroke-width="1px"></line><line x1="48.875" y1="12.642857142857139" x2="43.875" y2="12.642857142857139" style="visibility: inherit;" fill="rgb(0, 0, 0)" stroke="rgb(204, 204, 204)" stroke-width="1px"></line><line x1="48.875" y1="0" x2="43.875" y2="0" style="visibility: inherit;" fill="rgb(0, 0, 0)" stroke="rgb(204, 204, 204)" stroke-width="1px"></line></g><g transform="translate(38.875, 0)"><text x="0" y="177" dx="0em" dy="0.3em" style="text-anchor: end; visibility: hidden; font-family: &quot;Helvetica Neue&quot;, sans-serif; font-size: 12px; font-weight: 200;" fill="rgb(50, 49, 63)" stroke="none" stroke-width="1px">-220</text><text x="0" y="164.35714285714286" dx="0em" dy="0.3em" style="text-anchor: end; visibility: inherit; font-family: &quot;Helvetica Neue&quot;, sans-serif; font-size: 12px; font-weight: 200;" fill="rgb(50, 49, 63)" stroke="none" stroke-width="1px">-200</text><text x="0" y="151.71428571428572" dx="0em" dy="0.3em" style="text-anchor: end; visibility: hidden; font-family: &quot;Helvetica Neue&quot;, sans-serif; font-size: 12px; font-weight: 200;" fill="rgb(50, 49, 63)" stroke="none" stroke-width="1px">-180</text><text x="0" y="139.07142857142858" dx="0em" dy="0.3em" style="text-anchor: end; visibility: inherit; font-family: &quot;Helvetica Neue&quot;, sans-serif; font-size: 12px; font-weight: 200;" fill="rgb(50, 49, 63)" stroke="none" stroke-width="1px">-160</text><text x="0" y="126.42857142857143" dx="0em" dy="0.3em" style="text-anchor: end; visibility: hidden; font-family: &quot;Helvetica Neue&quot;, sans-serif; font-size: 12px; font-weight: 200;" fill="rgb(50, 49, 63)" stroke="none" stroke-width="1px">-140</text><text x="0" y="113.78571428571428" dx="0em" dy="0.3em" style="text-anchor: end; visibility: inherit; font-family: &quot;Helvetica Neue&quot;, sans-serif; font-size: 12px; font-weight: 200;" fill="rgb(50, 49, 63)" stroke="none" stroke-width="1px">-120</text><text x="0" y="101.14285714285715" dx="0em" dy="0.3em" style="text-anchor: end; visibility: hidden; font-family: &quot;Helvetica Neue&quot;, sans-serif; font-size: 12px; font-weight: 200;" fill="rgb(50, 49, 63)" stroke="none" stroke-width="1px">-100</text><text x="0" y="88.5" dx="0em" dy="0.3em" style="text-anchor: end; visibility: inherit; font-family: &quot;Helvetica Neue&quot;, sans-serif; font-size: 12px; font-weight: 200;" fill="rgb(50, 49, 63)" stroke="none" stroke-width="1px">-80</text><text x="0" y="75.85714285714286" dx="0em" dy="0.3em" style="text-anchor: end; visibility: hidden; font-family: &quot;Helvetica Neue&quot;, sans-serif; font-size: 12px; font-weight: 200;" fill="rgb(50, 49, 63)" stroke="none" stroke-width="1px">-60</text><text x="0" y="63.21428571428571" dx="0em" dy="0.3em" style="text-anchor: end; visibility: inherit; font-family: &quot;Helvetica Neue&quot;, sans-serif; font-size: 12px; font-weight: 200;" fill="rgb(50, 49, 63)" stroke="none" stroke-width="1px">-40</text><text x="0" y="50.57142857142857" dx="0em" dy="0.3em" style="text-anchor: end; visibility: hidden; font-family: &quot;Helvetica Neue&quot;, sans-serif; font-size: 12px; font-weight: 200;" fill="rgb(50, 49, 63)" stroke="none" stroke-width="1px">-20</text><text x="0" y="37.928571428571445" dx="0em" dy="0.3em" style="text-anchor: end; visibility: inherit; font-family: &quot;Helvetica Neue&quot;, sans-serif; font-size: 12px; font-weight: 200;" fill="rgb(50, 49, 63)" stroke="none" stroke-width="1px">0</text><text x="0" y="25.285714285714306" dx="0em" dy="0.3em" style="text-anchor: end; visibility: hidden; font-family: &quot;Helvetica Neue&quot;, sans-serif; font-size: 12px; font-weight: 200;" fill="rgb(50, 49, 63)" stroke="none" stroke-width="1px">20</text><text x="0" y="12.642857142857139" dx="0em" dy="0.3em" style="text-anchor: end; visibility: inherit; font-family: &quot;Helvetica Neue&quot;, sans-serif; font-size: 12px; font-weight: 200;" fill="rgb(50, 49, 63)" stroke="none" stroke-width="1px">40</text><text x="0" y="0" dx="0em" dy="0.3em" style="text-anchor: end; visibility: hidden; font-family: &quot;Helvetica Neue&quot;, sans-serif; font-size: 12px; font-weight: 200;" fill="rgb(50, 49, 63)" stroke="none" stroke-width="1px">60</text></g><line x1="48.875" y1="0" x2="48.875" y2="177" fill="rgb(0, 0, 0)" stroke="rgb(204, 204, 204)" stroke-width="1px"></line></g></g><g transform="translate(48, 0)" clip-path="url(#clip_0)"><clipPath id="clip_0"><rect width="281" height="177"></rect></clipPath><g><g><g><line x1="0" y1="0" x2="0" y2="177" fill="rgb(0, 0, 0)" stroke="rgb(60, 60, 60)" stroke-width="1px" opacity="0.25"></line><line x1="21.625" y1="0" x2="21.625" y2="177" fill="rgb(0, 0, 0)" stroke="rgb(60, 60, 60)" stroke-width="1px" opacity="0.25"></line><line x1="43.25" y1="0" x2="43.25" y2="177" fill="rgb(0, 0, 0)" stroke="rgb(60, 60, 60)" stroke-width="1px" opacity="0.25"></line><line x1="64.875" y1="0" x2="64.875" y2="177" fill="rgb(0, 0, 0)" stroke="rgb(60, 60, 60)" stroke-width="1px" opacity="0.25"></line><line x1="86.5" y1="0" x2="86.5" y2="177" fill="rgb(0, 0, 0)" stroke="rgb(60, 60, 60)" stroke-width="1px" opacity="0.25"></line><line x1="108.125" y1="0" x2="108.125" y2="177" fill="rgb(0, 0, 0)" stroke="rgb(60, 60, 60)" stroke-width="1px" opacity="0.25"></line><line x1="129.75" y1="0" x2="129.75" y2="177" fill="rgb(0, 0, 0)" stroke="rgb(60, 60, 60)" stroke-width="1px" opacity="0.25"></line><line x1="151.375" y1="0" x2="151.375" y2="177" fill="rgb(0, 0, 0)" stroke="rgb(60, 60, 60)" stroke-width="1px" opacity="0.25"></line><line x1="173" y1="0" x2="173" y2="177" fill="rgb(0, 0, 0)" stroke="rgb(60, 60, 60)" stroke-width="1px" opacity="0.25"></line><line x1="194.625" y1="0" x2="194.625" y2="177" fill="rgb(0, 0, 0)" stroke="rgb(60, 60, 60)" stroke-width="1px" opacity="0.25"></line><line x1="216.25" y1="0" x2="216.25" y2="177" fill="rgb(0, 0, 0)" stroke="rgb(60, 60, 60)" stroke-width="1px" opacity="0.25"></line><line x1="237.875" y1="0" x2="237.875" y2="177" fill="rgb(0, 0, 0)" stroke="rgb(60, 60, 60)" stroke-width="1px" opacity="0.25"></line><line x1="259.5" y1="0" x2="259.5" y2="177" fill="rgb(0, 0, 0)" stroke="rgb(60, 60, 60)" stroke-width="1px" opacity="0.25"></line><line x1="281.125" y1="0" x2="281.125" y2="177" fill="rgb(0, 0, 0)" stroke="rgb(60, 60, 60)" stroke-width="1px" opacity="0.25"></line></g><g><line x1="0" y1="177" x2="281.125" y2="177" fill="rgb(0, 0, 0)" stroke="rgb(60, 60, 60)" stroke-width="1px" opacity="0.25"></line><line x1="0" y1="164.35714285714286" x2="281.125" y2="164.35714285714286" fill="rgb(0, 0, 0)" stroke="rgb(60, 60, 60)" stroke-width="1px" opacity="0.25"></line><line x1="0" y1="151.71428571428572" x2="281.125" y2="151.71428571428572" fill="rgb(0, 0, 0)" stroke="rgb(60, 60, 60)" stroke-width="1px" opacity="0.25"></line><line x1="0" y1="139.07142857142858" x2="281.125" y2="139.07142857142858" fill="rgb(0, 0, 0)" stroke="rgb(60, 60, 60)" stroke-width="1px" opacity="0.25"></line><line x1="0" y1="126.42857142857143" x2="281.125" y2="126.42857142857143" fill="rgb(0, 0, 0)" stroke="rgb(60, 60, 60)" stroke-width="1px" opacity="0.25"></line><line x1="0" y1="113.78571428571428" x2="281.125" y2="113.78571428571428" fill="rgb(0, 0, 0)" stroke="rgb(60, 60, 60)" stroke-width="1px" opacity="0.25"></line><line x1="0" y1="101.14285714285715" x2="281.125" y2="101.14285714285715" fill="rgb(0, 0, 0)" stroke="rgb(60, 60, 60)" stroke-width="1px" opacity="0.25"></line><line x1="0" y1="88.5" x2="281.125" y2="88.5" fill="rgb(0, 0, 0)" stroke="rgb(60, 60, 60)" stroke-width="1px" opacity="0.25"></line><line x1="0" y1="75.85714285714286" x2="281.125" y2="75.85714285714286" fill="rgb(0, 0, 0)" stroke="rgb(60, 60, 60)" stroke-width="1px" opacity="0.25"></line><line x1="0" y1="63.21428571428571" x2="281.125" y2="63.21428571428571" fill="rgb(0, 0, 0)" stroke="rgb(60, 60, 60)" stroke-width="1px" opacity="0.25"></line><line x1="0" y1="50.57142857142857" x2="281.125" y2="50.57142857142857" fill="rgb(0, 0, 0)" stroke="rgb(60, 60, 60)" stroke-width="1px" opacity="0.25"></line><line x1="0" y1="37.928571428571445" x2="281.125" y2="37.928571428571445" fill="rgb(0, 0, 0)" stroke="rgb(60, 60, 60)" stroke-width="1px" opacity="0.25"></line><line x1="0" y1="25.285714285714306" x2="281.125" y2="25.285714285714306" fill="rgb(0, 0, 0)" stroke="rgb(60, 60, 60)" stroke-width="1px" opacity="0.25"></line><line x1="0" y1="12.642857142857139" x2="281.125" y2="12.642857142857139" fill="rgb(0, 0, 0)" stroke="rgb(60, 60, 60)" stroke-width="1px" opacity="0.25"></line><line x1="0" y1="0" x2="281.125" y2="0" fill="rgb(0, 0, 0)" stroke="rgb(60, 60, 60)" stroke-width="1px" opacity="0.25"></line></g></g></g><g><g><line x1="0" y1="37.928571428571445" x2="281.125" y2="37.928571428571445" fill="rgb(0, 0, 0)" stroke="rgb(153, 153, 153)" stroke-width="1.5px"></line></g></g><g><g><line x1="21.625" y1="0" x2="21.625" y2="177" fill="rgb(0, 0, 0)" stroke="rgb(153, 153, 153)" stroke-width="1.5px"></line></g></g><g><g><g><g><g><path stroke="rgb(255, 112, 67)" stroke-width="2px" d="M29.734375,179.70224929123287L30.275000000000002,175.97640111804634L30.815625,175.53718306985434L31.14,175.95000944789223L31.248125,176.8202594077319L31.896875,169.69517817766814L32.761874999999996,167.51152081050466L33.08625,167.93108039819475L33.194375,166.004406387294L33.95125,163.4682442973797L34.275625,160.9075685545183L34.491875,159.60693273248867L35.140625,157.69213762150645L35.248749999999994,155.58670421060702L35.356875,151.31135120984231L35.68125,148.94289949824483L35.789375,149.2502433582113L36.54625,147.94039808247416L36.7625,146.22695081805298L36.978750000000005,147.0089546125753L37.086875,145.12996222350557L37.195,143.4601732304863L37.303125,143.72255076863573L37.951875,144.72095151515379L38.4925,143.59231868548338L38.70875,143.4592939449546L38.816874999999996,139.5642957159086L38.925000000000004,138.10313523956526L39.249375,133.84775925202524L39.57375,131.56710173201208L39.79,128.99388320187174L39.898125,125.3847391634999L40.2225,123.97215984525356L40.763124999999995,123.14615511062553L40.87125,121.23181537943759L40.979375,122.04488385015296L41.195625,119.57975344300763L41.52,116.0372974817664L41.73625,115.28149309187214L41.844375,114.95795987226272L42.060625,111.74227360625568L42.276875000000004,109.79467671914523L42.385,108.38748553719127L43.141875,109.11818306586925L44.006875,109.47991407361835L44.114999999999995,110.48810664487034L44.223125,108.47499329541039L44.655625,109.11513794587333L45.304375,109.6107083330214L45.736875,107.18538506687999L45.845,104.65473218467564L46.061249999999994,105.64873184214603L46.277499999999996,104.69769248403352L46.49375,104.02502630233586L46.818125,103.28747267083705L46.92625,103.62094903341237L47.034375,103.31605483651339L47.35875,100.93703940604448L48.44,101.54767419053161L48.65625,100.23348089029618L49.305,99.9479960817419L49.629374999999996,99.32255087134277L49.737500000000004,99.94553111974824L49.845625,99.85189090085774L49.95375000000001,98.17612102741049L50.169999999999995,98.94232586332998L50.6025,98.23244190641644L50.81875,96.8221127324528L51.035,94.64705533511611L51.25125,94.31321185344386L51.791875,93.89032776148044L52.008125,93.78633787468542L52.440625000000004,93.53564469196178L53.1975,94.09431344433229L53.305625,92.34926200864945L53.846250000000005,92.73422846313593L53.954375,93.24197034079423L54.0625,91.02310486677146L54.27875,91.82193038462279L54.386875,90.46163025575177L54.495,88.67253243829994L54.927499999999995,88.25055625615708L55.035625,88.09190280482038L55.251875000000005,87.62719636577948L55.57625,88.13438413484248L56.00875,88.69710010974677L56.116875,89.31382527420571L56.225,88.87618869492105L56.333125,87.07470091010937L56.549375,85.09966426432922L56.87375,83.42437812041564L56.981875,83.1982076469304L57.089999999999996,82.82697289898626L57.41437500000001,82.53871175367902L57.5225,82.43797106408216L57.73875,83.0620135598832L58.3875,82.84390146476035L58.60375,82.89819358317165L58.928125,83.52009755494309L59.036249999999995,83.38256968593542L59.2525,82.13351886932783L59.360625000000006,82.0210836387387L59.90125,82.7141675063718L60.009375,82.50440588100398L60.441874999999996,82.953604522376L60.658125,81.95502151853533L60.982499999999995,82.49781323259354L61.415,83.24843738234706L61.847500000000004,83.76569211468822L62.06375,84.60857414744996L62.49625,83.32950212547708L62.604375,81.94423921839307L62.712500000000006,80.47965295253235L62.928749999999994,81.07076752259856L63.036875,80.97687643266381L63.469375,81.63122172373879L63.5775,81.39878712096169L63.685625,81.98033552317406L64.01,80.76258023360097L64.11812499999999,79.51196717688298L64.22625000000001,79.91633767902907L65.30749999999999,79.68615366782288L65.84812500000001,80.23763970563108L66.605,78.97177943079312L66.713125,77.8293935277329L67.25375,76.56277655225193L67.361875,75.56083466154269L67.578125,76.24388835112022L67.794375,76.04966815892982L68.22687499999999,76.3643638028803L69.2,75.26469031217863L69.308125,74.91204626057448L69.41624999999999,73.98132773628848L69.524375,72.73184555393729L69.84875,71.92233974516954L70.49749999999999,71.91554443150515L71.254375,71.20524323929239L71.3625,71.1110660530546L71.470625,69.95730261585067L71.57875,69.86659323558415L71.795,70.35730572880067L71.90312499999999,70.17107465047894L72.2275,69.13668095510408L72.335625,68.53305530305066L72.87625,68.20372335999329L72.984375,67.2145036328109L73.416875,67.69843850287123L74.17375,68.37573608395678L74.498125,68.88918097063129L74.60625,69.39176014151204L74.82249999999999,68.4779428612461L75.03875000000001,69.1493294977063L75.36312500000001,68.64945587626543L76.5525,68.84094002332701L76.876875,67.73674234396621L76.985,66.66922826495058L77.093125,66.87904875659096L77.309375,67.36268635989562L77.525625,66.33784463949699L77.63374999999999,66.39028674814114L77.85000000000001,66.90100297614724L78.390625,67.60639639972419L78.49875,67.5589670996052L79.1475,66.69389596506294L79.36375,65.82147038392996L79.471875,66.35277062683407L79.58,66.13460305682514L79.68812500000001,66.75393631794438L79.79625,67.12895255585775L79.904375,66.25778128632908L80.12062499999999,66.75096789889267L80.22875,66.60938167173428L80.336875,65.88871939277585L80.8775,64.97716705694478L80.985625,64.11830328075428L81.09374999999999,64.70818383300794L81.31,64.54057993111782L81.7425,63.70023903114881L81.95875,63.60843613745824L82.17500000000001,64.10088705096913L82.6075,63.47208453775485L82.715625,63.46572094156268L82.82375,62.57440021329465L83.25625,61.769713084808146L83.68875,62.265601722151416L83.796875,62.120793145115655L84.12125,62.51876167373602L84.33749999999999,63.06850829421751L84.44562499999999,63.00692624970762L84.55375000000001,62.93820956234393L84.661875,62.32578881066931L84.77,61.68009910013653L84.878125,60.947726389462304L85.094375,59.966558417040716L85.2025,60.46027693794616L85.74312499999999,59.57747447521331L85.85125,58.86854261637244L86.175625,59.34514325368107L86.28375,59.341456671578484L86.608125,59.748746206730246L86.82437499999999,59.80260676925408L87.256875,59.3640160053714L87.47312500000001,59.019998896782994L87.689375,59.49703910797707L87.905625,58.73595769355609L88.22999999999999,59.14267236646445L88.6625,59.64750236773921L88.770625,59.51689529528733L88.986875,58.86159641791073L89.31125,58.13042202737253L89.74374999999999,58.63156919690826L90.28437500000001,57.91781978863047L91.04125,57.95594045421895L91.14937499999999,58.27707107268783L91.36562500000001,58.753868102436314L91.47375,58.69436409536496L91.581875,59.07837225468295L91.69,58.472432762630575L91.798125,57.61166184521164L91.90625,57.303154732582485L92.230625,57.78257721718157L92.663125,57.22559446545303L92.77125000000001,57.28992671446588L93.20375,57.76567015519298L93.52812499999999,57.02188733331455L93.744375,57.368249621402L93.960625,57.94673946416947L94.285,58.007051996744835L94.393125,58.51109717816064L94.50125,58.466790749687675L94.60937500000001,58.86632146071864L94.7175,58.132902861926794L94.93375,57.619808186108855L95.04187499999999,56.869836973578515L95.15,55.99626395843508L95.36625,56.38557162935038L95.474375,56.09405261977035L95.58250000000001,56.21275733334238L95.690625,56.76446178467437L95.79875,56.86219430354549L95.906875,56.27837328596152L96.123125,56.62882603414724L96.23125,56.49868404314495L96.988125,56.36903570729977L97.3125,56.426452602972645L97.420625,56.371327080585004L97.52875,56.75642945294052L97.745,56.34434123461125L98.06937500000001,56.313593773339605L98.285625,56.79934751116832L98.50187500000001,57.28960097837101L98.934375,56.653599541313255L99.366875,56.05508567672722L99.69125,56.589586118715445L99.799375,57.15020237299447L99.90750000000001,57.573160559844865L100.015625,57.96489416859227L100.12375,58.22211450473118L100.66437499999999,58.63132493328682L101.313125,59.14556856439542L101.529375,58.47110464896416L101.6375,57.78182007376135L101.74562499999999,57.09595446142923L101.85375,56.737035944703536L102.07,56.252769851543036L102.39437500000001,56.12085937787029L102.5025,56.43544306778787L102.826875,56.76967661749366L102.935,56.64011813125833L103.043125,56.02992166847892L103.259375,55.51008712046762L103.475625,55.489195266192226L104.124375,55.19670906570758L104.44875,55.17858122710463L104.55687499999999,54.613721931363855L104.88125000000001,54.59390282189261L104.989375,53.89509830299123L105.0975,54.29864624102781L105.31375,53.827741223538084L105.421875,54.262398196697774L105.53,53.766316546368785L106.07062499999999,53.2616393173972L106.503125,53.14251714800356L106.61125,53.526811571302105L106.8275,53.92916645994397L107.04374999999999,53.48768587438451L107.26,53.44109382865139L107.368125,53.596419003392484L107.47625,53.95755604561259L107.584375,53.430439749231354L107.69250000000001,53.8148826709167L107.800625,53.87362965118608L108.016875,53.476104022115564L108.233125,53.85491065955205L108.44937499999999,53.211026338600405L108.77375,53.669318046030114L108.99,53.960766849193305L109.09812500000001,54.24012228408873L109.20625,53.67657151395652L109.63875,53.265882552327085L109.85499999999999,53.090466909742375L109.96312499999999,52.53605408173368L110.17937500000001,52.50227556606329L110.50375000000001,52.824022230483095L110.93624999999999,53.238829422947404L111.260625,53.1344446436303L111.58500000000001,53.0848776949241L111.693125,52.72726940137052L111.909375,52.236602123988405L112.125625,52.03694231253756L112.34187499999999,52.50705770698235L112.8825,52.85111691708397L113.09875,53.11079883511134L113.206875,53.147188623551685L113.315,53.08407826617788L113.423125,52.45897670087729L113.7475,51.9521860364067L114.39625000000001,51.937553912472566L114.6125,51.57213177879355L114.720625,51.52193204282425L114.82875000000001,51.2316259057646L115.045,51.605144832408044L115.4775,51.97371850917648L115.69375,52.235704085417254L115.80187500000001,52.613062924073446L116.23437499999999,52.1142504235053L116.3425,52.06463808008125L116.450625,52.27058279990476L116.55875,52.00796490260751L116.883125,52.32606414839016L116.99125,52.29441661689155L117.099375,52.668314195211835L117.31562500000001,52.171254748386204L117.64,51.645385777296454L117.85625,51.92793548785751L117.964375,51.4874769427894L118.180625,50.94268383801679L118.28875000000001,50.90762572116151L118.613125,50.89296760157407L118.9375,50.364009248306644L119.045625,50.663561524886106L119.8025,50.08766862914787L119.910625,50.48800281029217L120.01875,50.003158254120294L120.12687500000001,50.002712716741684L120.235,50.07474382739373L120.343125,50.026264704178516L120.45125,50.41272542577455L120.6675,49.940813362837005L120.775625,49.89765248648885L120.88374999999999,49.890003045610186L121.20812500000001,49.3418686559438L121.31625,48.769973672141106L121.424375,48.783835303493106L121.5325,48.841603752703776L121.74875,49.16821377351954L122.3975,49.55624793297984L122.505625,49.312681127116946L122.83,49.35117098290452L123.586875,49.381664059706935L123.91125,49.39468308356618L124.668125,49.68492226121583L124.77624999999999,49.595021090574065L124.88437499999999,49.97331023583074L125.10062500000001,49.477360685610805L125.20875,49.86787683652267L125.316875,50.1699552632591L125.64125,50.15296846928105L125.749375,50.24012361898647L125.965625,50.53246190918996L126.181875,50.91613218157774L126.28999999999999,50.96923420908662L126.7225,51.24347506260328L126.830625,50.87499792427184L127.26312499999999,50.64459246226073L127.37125,50.97119195610604L127.479375,51.32245895896993L127.5875,50.86133243696651L127.91187500000001,51.28561133396539L128.02,50.81771701942266L128.128125,51.19682295991278L128.45250000000001,50.73639993791866L128.560625,50.71533602387191L129.425625,51.089422757669794L129.75,50.8770130986876L129.858125,51.19739993993868L130.074375,51.50008013084154L130.290625,51.25538109339796L130.39875,50.87882961115241L130.723125,51.178712077801904L130.83125,51.52836244549847L131.04749999999999,51.572597645533904L131.155625,51.098065816328315L131.26375000000002,51.314970994830176L131.371875,51.665167261234885L131.69625000000002,51.25518174058868L132.56125,51.30464832131304L132.7775,51.32557629100114L132.99375,50.991054304859844L133.21,50.78321287576108L133.318125,51.058480768408955L133.42625,50.58230356208041L133.6425,50.1903695347732L133.85875,50.4764588997034L133.966875,50.00140185789759L134.07500000000002,49.497720856375366L134.399375,49.501959766015005L134.615625,49.24794810893596L135.3725,49.644997307689536L135.480625,49.65214809883983L135.805,49.9216492809272L136.02125,49.84411093384078L136.67,49.83603229797011L136.778125,49.7147558805286L136.99437500000002,49.80460381233968L137.210625,49.39886863159549L137.643125,49.65735082106903L137.859375,49.82271892750329L138.075625,49.34028035541941L138.291875,49.29070865424799L138.508125,48.84549114448507L138.83249999999998,49.158933233608536L138.940625,49.4672480469481L139.04875,49.469249433933754L139.15687499999999,49.04980819492242L139.805625,48.67401888979987L139.91375,48.99412384794198L140.5625,48.98913480208495L140.77875,48.52577273861087L140.99499999999998,48.875454941207494L141.103125,49.276191540113615L141.21125,48.94987954373141L142.184375,49.24959543805255L142.400625,49.24444386390181L142.725,49.51993850817263L143.1575,49.465587226243L143.37375,49.43950450432693L143.481875,49.398721118368215L143.59,49.70964010832259L143.914375,49.706869597839855L144.0225,49.274220155128205L144.23875,49.26460726402874L144.34687499999998,48.88959099835813L144.455,48.89905200025288L144.77937500000002,48.5258709285375L144.8875,48.45733578524309L145.96875,48.08761477800772L146.185,48.41159676678899L146.29312499999997,47.89711175065062L146.61749999999998,47.46546880880888L146.725625,47.08250311168982L146.83375,47.02325406878674L147.15812499999998,47.00898468827188L147.26625,47.014607277338825L147.37437500000001,47.27666106751195L148.99625,47.55472354662024L149.320625,47.92299032777484L149.536875,47.94079241209815L149.64499999999998,47.52702247685207L149.86125,47.695004752610856L149.96937499999999,47.92349345943859L150.29375,47.6263610036533L150.618125,47.39979306352052L150.72625000000002,47.428886534842434L150.834375,47.61616885116578L150.9425,47.90356954281452L151.15875,48.21139537785393L151.375,48.23386544345939L151.59124999999997,47.85984735384241L151.8075,47.8608356500861L151.91562499999998,48.11368738010452L152.131875,47.78391073502462L152.348125,47.41668343032737L152.564375,47.501747092518L152.6725,47.48082371966265L152.780625,47.17213112596863L152.88875000000002,46.94761509252484L152.996875,47.20430821348589L154.07812500000003,47.10425758759541L154.510625,47.411635988253664L154.94312499999998,47.03342879345789L155.05125,47.074755894511696L155.159375,47.07740145509851L155.375625,46.78985663169573L155.70000000000002,46.79047075285223L156.02437500000002,46.664430366966116L156.240625,46.69461421106928L156.456875,46.69495315822678L156.565,46.34258213892738L156.78125,46.14203307555826L157.21375,46.177097479570705L157.321875,46.15075433378095L157.43,46.42302839095325L157.64625,46.01027829988968L157.75437499999998,45.69555472793064L158.07874999999999,46.01915478846044L158.18687500000001,46.31788387646702L158.295,46.50362606549987L158.403125,46.77890848687602L158.51125000000002,46.777148832799924L158.619375,46.75659572566559L159.16,46.77161712601199L159.268125,46.9443296936314L159.484375,46.56914904245912L159.916875,46.839734965179645L160.025,46.870422379872934L160.24124999999998,47.168058168365945L160.67375,47.167904697931846L160.89,46.831101109746015L161.32250000000002,46.53876665346715L161.430625,46.51914053041716L161.53875,46.48807894798466L161.646875,46.509799672840245L161.86312500000003,46.20589334940141L162.18749999999997,45.87593296256631L162.295625,45.896442374709096L162.511875,45.89472127333812L162.62,46.15482185250346L162.728125,45.8582081177008L163.37687499999998,46.111682972469055L163.593125,45.73574020549026L163.70125,45.71431579696207L163.9175,45.97530793110914L164.025625,45.96507185053602L164.35000000000002,45.67955766380581L164.458125,45.75899808844528L164.99875,45.995751061341736L165.106875,45.99538330634243L165.215,46.017737855512024L165.53937499999998,46.202766740326666L165.755625,45.80047618595586L165.86374999999998,46.039326631183684L165.971875,46.290022529904576L166.08,46.58111724634091L166.18812499999999,46.56817929620044L166.29625000000001,46.49850046164997L166.62062500000002,46.19532150104976L166.945,46.226031698148915L167.485625,46.48615481804924L167.59375,46.16381863271576L167.701875,45.797121182249725L167.81,45.79753868465127L168.2425,46.04150589682209L168.67499999999998,45.669310681227614L168.89124999999999,45.95223555619512L168.999375,45.60517742121988L169.431875,45.29119058035809L169.864375,44.97433705312176L170.62125,44.583818843434045L170.729375,44.43003475453423L170.83749999999998,44.10863366001874L171.16187499999998,44.12613596706072L171.378125,43.828591451939076L171.48624999999998,43.855598958640684L171.7025,44.128346580280095L171.810625,44.40554336543357L171.91875000000002,44.08271208153715L172.13500000000002,44.1046985410816L172.243125,44.12549314388556L172.5675,43.889155173518844L174.40562500000001,43.520632889540366L174.51375,43.72995673716838L174.62187500000002,43.36242150021559L174.73,43.42820732249996L175.1625,43.70563083999912L175.486875,43.95950583860457L175.595,44.19283816591215L175.919375,44.19539266953896L176.0275,44.48265808097341L176.13562499999998,44.82822495785274L176.568125,44.664988492066755L176.67625,44.65763873378151L176.78437499999998,44.9309667776059L177.00062499999999,44.87762133414654L177.10875000000001,44.59448144324696L177.21687500000002,44.83354062984617L177.43312500000002,44.64127207476761L177.649375,44.8397215546824L178.298125,44.49533991535739L178.514375,44.73981580191503L179.055,44.42173481838543L179.163125,44.44045992106413L180.13625,44.42828289611268L180.24437500000002,44.65881855204583L181.43374999999997,44.827442094361516L181.86625,44.81708622600624L181.974375,44.806656361876435L182.29874999999998,44.485030107616495L182.406875,44.50213077306901L182.73125000000002,44.53284993056113L182.9475,44.264035654757464L183.05562500000002,43.95799645625502L183.16375,43.96284080883234L183.920625,44.21054560438523L184.02875,44.20894893677277L184.136875,44.428446078291444L184.24499999999998,44.63949311991931L184.46125,44.64711026698333L184.56937499999998,44.79595410025726L184.78562499999998,44.8100283423218L184.89375,44.78884599542343L185.001875,44.528627148482656L185.10999999999999,44.597993579047596L185.650625,44.83948086518251L185.86687500000002,45.09839280150615L186.4075,45.382112677867326L186.515625,45.02866014201507L186.62375,44.70365705476979L186.84,44.3459278215762L187.59687499999998,44.60188582445204L187.813125,44.61471335315392L188.894375,44.570943683015486L189.110625,44.30785775253608L189.21875000000003,44.17206673061429L189.435,44.23573349028811L189.54312499999997,44.261690595266316L189.759375,44.53204324489582L189.8675,44.15575452431406L190.51625,44.35002189623913L190.624375,44.58945756833276L191.273125,44.426128624854414L191.38125,44.50533642247146L192.354375,44.4995583014917L192.4625,44.49374886864783L192.786875,44.15972797451744L193.003125,44.39453860268833L193.435625,44.577640283677L194.084375,44.84178248266892L194.300625,44.565688084194335L194.40875,44.55131971553226L194.625,44.51875521816726L194.949375,44.49097872206576L195.165625,44.50491633945842L195.27375,44.74962513089994L195.70624999999998,44.45676078021239L195.814375,44.65624503341874L196.030625,44.72091331500636L196.13875000000002,44.41444252605618L196.246875,44.06499575690208L196.355,44.077944050889045L196.679375,44.05748233450058L196.7875,44.04182813744916L196.895625,43.843503441877516L197.32812499999997,43.540954894227724L197.544375,43.21672931506487L197.6525,43.42787864473442L197.760625,43.6426889981349L197.976875,43.369200548765605L198.19312499999998,43.365394419907716L198.409375,43.3421479185923L198.73375,43.07029641586135L198.841875,43.04919261278749L199.058125,43.3151877540339L199.16625,43.529273213632734L199.274375,43.77260969564068L199.59875,43.50407369582783L199.81500000000003,43.48530991642838L199.923125,43.74423828194904L200.2475,43.98129395262413L200.355625,43.9344394160002L200.67999999999998,44.030640480079086L201.00437499999998,43.72734494406092L201.1125,43.42952755119762L201.220625,43.131204392224674L201.32874999999999,42.832028271632396L201.653125,42.57538354882675L202.085625,42.61777570992146L202.30187500000002,42.77991069833786L202.41,42.793834591953384L202.518125,42.496971315107174L202.8425,42.54966138986998L202.950625,42.506175255469685L203.166875,42.55519262956824L203.599375,42.80543400991351L203.7075,42.816013087034264L203.81562499999998,42.50018727673947L204.14,42.195505324050856L204.5725,42.41787326432282L204.680625,42.43466459962491L204.896875,42.24299395457243L205.005,41.94058369158748L205.11312500000003,42.23015878105855L205.22125,42.233382898342256L205.4375,42.24481815386167L205.761875,42.26568094856532L205.87,42.28939554777895L205.97812499999998,41.952921021645665L206.08625,41.91673225743804L206.51875,41.544482087909785L206.62687499999998,41.40268909942688L207.1675,41.639954514965865L207.38375,41.37919744700085L207.491875,41.06365387216786L207.60000000000002,40.87547496127249L208.0325,41.051599144465655L208.356875,40.7476832380726L208.573125,40.93693551765824L208.8975,40.605612109908975L209.005625,40.63104768350024L209.11374999999998,40.343919347471825L209.221875,40.07327321434505L209.32999999999998,39.80735798736808L209.54625000000001,39.82542787860268L209.76250000000002,39.80513723082785L210.08687500000002,39.8053007195351L210.195,39.97397300936291L210.41125000000002,39.6109450644864L210.519375,39.3392273449312L210.6275,39.20302799458736L210.951875,39.18242228315077L211.168125,39.20821800383777L211.27624999999998,38.902204776748164L211.384375,38.6469832696786L211.4925,38.30735521026887L212.24937500000001,38.150773510431065L212.35750000000002,38.15052134372621L212.681875,38.393558381058085L213.2225,38.409105226744146L213.655,38.108709366265714L213.87125,38.26972480988127L214.30375,38.03442083371962L214.41187499999998,38.31559987485761L214.62812499999998,38.04276483282172L215.06062500000002,37.85241608847585L215.16875,37.53656096401784L215.276875,37.475124272585646L215.493125,37.699953104189575L215.60125,37.737703131364526L215.70937500000002,37.933660708317035L216.141875,37.91793066066066L216.57437499999997,37.93273732118527L216.790625,37.9134156760733L216.89874999999998,37.91512424861108L217.115,37.921119779402176L217.5475,37.668826600820665L217.76375,37.36512191963982L217.87187500000002,37.12955657009613L218.19625000000002,37.33646446669519L218.520625,37.036340677259034L218.953125,37.036539717191374L219.169375,36.74287940563795L219.601875,36.501967401537286L220.034375,36.499313950148405L220.1425,36.70667492394787L220.25062499999999,36.525776151745276L220.68312500000002,36.191755969731815L220.79125,35.90548872403977L220.899375,36.111472600138484L221.115625,35.8920322989413L221.22375,35.89416393670277L221.331875,35.893464915115146L221.548125,35.922995863102386L221.65625,35.76018409599931L221.980625,35.981815781318545L222.08875,35.9666810929273L222.305,36.2256985885017L222.52125,36.27069490859361L222.629375,36.12277795876065L222.73749999999998,36.09776996701035L223.49437500000002,36.11493711518017L223.710625,36.13654099277264L223.81875,35.93093521023158L224.4675,35.69290754723005L224.575625,35.428707223532626L224.68374999999997,35.64342137985116L224.791875,35.649118449542584L224.9,35.73974855582253L225.11625,35.734910039978416L225.440625,35.44328966402247L226.1975,35.1970665910041L226.30562500000002,34.94639724909834L226.41375,35.169528737711914L226.954375,35.16039045089795L227.386875,34.917663560970624L227.71125,35.11300508883116L227.819375,35.08381349425994L228.14375,35.10481716688611L228.251875,34.760587833876144L228.35999999999999,35.000485656397615L228.46812500000001,34.954123887654475L228.57625,34.97193026748775L228.900625,34.730261583338944L229.00875,34.45760295732151L229.116875,34.21970223814506L229.225,34.49275475337555L229.65750000000003,34.6938232594037L229.765625,34.363204205950325L229.87375,34.558210596365456L230.198125,34.38474056769974L230.414375,34.38096888054358L230.630625,34.531519878378134L230.84687499999998,34.46184019338881L230.955,34.63857689639076L231.063125,34.893790796336845L231.27937500000002,35.09178230763507L231.3875,35.08813513350947L231.928125,35.12355121142954L232.2525,35.166993649853396L232.46874999999997,35.42520858942814L232.793125,35.43410210320451L233.1175,35.49119766075958L233.225625,35.51375363333992L233.441875,35.33160016634207L233.65812499999998,35.10601677547251L234.306875,34.94735085549644L234.415,35.21801828932914L234.63125000000002,35.20975917983213L234.8475,34.901028733934965L235.388125,34.642018234745365L235.82062499999998,34.842840921078334L235.92875,34.61065796839833L236.036875,34.324993477785625L236.14499999999998,34.53220233110952L237.44250000000002,34.66952520412468L237.65875,34.672243773418785L237.875,34.70146253805814L238.09125,34.730397112896696L238.199375,34.48497600170572L238.52375,34.65002725666656L238.63187499999998,34.863674476119655L238.74,35.09642114183913L238.848125,35.12792134374291L238.95624999999998,35.15488373264955L239.064375,35.14864065280696L239.17249999999999,35.34072668709641L239.38875000000002,35.57735986633426L239.496875,35.63489034223116L239.605,35.849420085355206L239.82125,36.10113763320524L240.361875,35.84546944669114L240.68625,35.56335763451318L240.9025,35.546545235131504L241.010625,35.72267631065111L241.226875,35.72023924168812L241.55125,35.70897256664492L241.875625,35.44518353136476L242.091875,35.44652170702733L242.41625000000002,35.48839195895965L242.524375,35.51645205566234L242.74062500000002,35.27524561399005L242.84875,35.2913029933911L243.173125,34.967708735452845L243.389375,34.953524040726705L243.4975,34.6803139264743L244.3625,34.55357825664498L244.47062499999998,34.53885320555986L244.68687500000001,34.29772103615798L245.22750000000002,34.14757059817879L245.768125,34.3914572398383L245.87625,34.167361562983814L245.984375,34.40364170628433L246.200625,34.43766963464918L246.30875,34.470533856666265L246.525,34.67484462550601L246.74124999999998,34.89747007827822L247.06562499999998,35.09574438051055L247.17375,35.122868830633536L247.60625,35.30228216838512L248.146875,35.09140880389225L248.363125,35.32891886856498L249.011875,35.43214188667804L249.12,35.30472609419314L249.22812499999998,35.05638419726668L249.33625,35.10190667334274L249.444375,34.940608999605786L249.76874999999998,34.71114947922831L249.985,34.93852878344177L250.309375,34.63726806000403L250.4175,34.58787279340032L250.741875,34.61984853149809L250.958125,34.63553477761474L251.174375,34.796035910383694L251.2825,34.66856988109956L251.390625,34.84434853197706L251.823125,35.07435387402509L252.255625,35.23528631537525L252.36375,35.00558718137498L252.471875,35.17683980560059L252.904375,35.37267310098676L253.01250000000002,35.52846975597086L253.22875,35.70823369744309L253.33687500000002,35.89812163917412L253.553125,36.11917524155197L253.66125,35.89588235341037L253.769375,35.63287829215915L253.985625,35.38979271702871L254.09375,35.443563605627304L254.201875,35.5674135816497L254.31,35.595272481764084L254.634375,35.39234042694105L254.85062499999998,35.35949409745254L254.95875,35.14600982241237L255.6075,35.324906228130544L255.715625,35.347893073147475L255.82375000000002,35.37022230743304L256.25625,35.19797349866147L256.47249999999997,34.95528750855243L256.68875,35.17687817919071L257.12125,34.924499864406386L257.878125,34.938717691974006L258.2025,34.95621287913815L258.41875,34.696136490665964L258.635,34.65177637523905L258.743125,34.67003767580749L258.95937499999997,34.66793997828606L259.175625,34.72078905478773L259.391875,34.87348495255645L259.5,35.03959143182814L259.608125,34.79082393527824L259.71625,34.587601256894885L259.9325,34.78177957052017L260.04062500000003,34.94840971741408L260.365,34.95450460713482L260.473125,35.15539816779821L260.7975,34.897291098043524L261.121875,34.89096678889808L261.554375,34.61879619835992L262.203125,34.82160534415161L262.31125,35.030177705128466L262.635625,34.77278999601941L262.74375,34.50923421749175L262.96,34.46832241284076L263.17625,34.19023059235886L263.284375,34.393321591749356L263.500625,34.42900704569982L263.60875,34.61023587634L263.825,34.60210699033661L263.933125,34.628423055821855L264.04125,34.40588567297172L264.149375,34.25162430891817L264.365625,33.996051010661006L264.58187499999997,33.75757657605894L264.69,33.51773687621866L265.1225,33.23755590857212L265.230625,33.29123343478801L265.446875,33.470107587504515L265.77125,33.66936640669397L265.9875,33.42387115407374L266.311875,33.216603939820345L266.960625,33.43095489644355L267.609375,33.61201226535505L268.041875,33.40416512266478L268.36625,33.15846829320944L268.906875,32.97356524025105L269.123125,32.76014825468798L269.4475,32.75464819634038L270.09625,32.4631741265996L270.20437499999997,32.25514678662654L270.420625,32.45638284711444L270.745,32.703357229553575L270.853125,32.93686421752537L271.069375,32.90961386446469L271.1775,32.93733191822341L271.285625,32.9854945466912L272.25875,33.18770730750967L272.366875,33.370746127079L272.475,33.38022504510667L272.583125,33.41742027228699L272.799375,33.176349722491835L273.015625,33.01113981291587L273.34,33.04200039222229L273.448125,33.064111563162044L273.880625,33.25322647472237L274.096875,33.063115935553014L274.205,33.27226336712664L274.313125,33.46301562535885L274.42125,33.342170625524574" style="fill: none;" fill="none"></path></g></g></g></g><g opacity="0.2"><g><g><g><path stroke="rgb(255, 112, 67)" stroke-width="2px" d="M22.381875,325.14187218802317L22.814375000000002,76.04650068283081L22.9225,222.89998005458287L23.355,340.07530190604075L23.679375,120.9534885406494L23.7875,302.2334263392857L23.895625000000003,88.23886585235596L24.328125,197.05911516462055L25.625625,233.81760112217495L26.058125,109.6895036152431L26.274375,164.04389762878418L26.490624999999998,87.52346101488385L26.59875,102.37658999306815L26.815,406.88929857526506L27.03125,88.77951891762869L27.139375,95.9935203552246L27.463749999999997,315.6180790492466L27.571875,124.31950263977052L27.68,218.23152171543666L27.788125,7.660309573582225L27.896250000000002,110.7740458897182L28.32875,89.88859511784145L28.544999999999998,196.68270002092635L28.869375,193.3745024544852L28.9775,136.6955298287528L29.085625,142.1160275050572L29.41,179.46775507245744L29.518124999999998,242.41534587315152L29.62625,167.67868047441755L29.734375,176.3200432368687L30.275000000000002,51.49025109836033L30.815625,160.43814844403948L31.14,190.5399972643171L31.896875,-95.84275752476282L32.761874999999996,84.0307598386492L33.08625,184.37385537283762L33.194375,88.64773406982422L33.95125,59.20860267366682L34.275625,53.18734212602888L34.491875,103.64832221439907L35.140625,73.47941383634296L35.248749999999994,60.978973552158905L35.356875,-44.88076351710728L35.68125,37.99937753469817L35.789375,163.9395500728062L36.54625,84.09123377118792L36.7625,61.07576367514474L36.978750000000005,186.61364315577916L37.086875,48.18618552344185L37.195,55.72796107700894L37.303125,157.7564316885812L37.951875,199.0667687007359L38.4925,81.09152608598983L38.70875,135.96719970703126L38.816874999999996,-83.47786151341029L38.925000000000004,53.05559706687927L39.249375,-117.84185175214492L39.898125,-98.24869308471682L40.2225,35.12085274457931L40.763124999999995,70.41719455718994L40.87125,-2.7624804905482563L40.979375,175.46798727852956L41.195625,-44.69366520472937L41.52,-123.33068945748465L41.73625,63.50690836225236L41.844375,92.49403822762626L42.060625,-114.5220600128174L42.276875000000004,-29.052089064461853L42.385,6.761495917184021L43.141875,162.56565023149764L44.006875,136.27393406459262L44.114999999999995,186.0991203853062L44.223125,-44.361784417288675L44.655625,158.30620961870466L45.304375,148.1491547175816L45.736875,-83.65620149884904L46.061249999999994,185.69232117789133L46.277499999999996,27.240053435734325L46.49375,48.622352375302995L46.818125,41.864417241300856L46.92625,131.69804583958216L47.034375,77.36651945114136L47.35875,-103.7150465829032L48.44,154.6343292781285L48.65625,-15.21695161546981L49.305,74.60835060392108L49.629374999999996,43.238698390551974L49.737500000000004,156.37484419686453L49.845625,91.28493093763079L49.95375000000001,-56.65755909511023L50.169999999999995,170.43088825770786L50.6025,31.355798527172624L50.81875,-37.31802537100657L51.035,-114.19441370282851L51.25125,61.957263238089425L51.791875,52.523130818775726L52.008125,83.52016770499093L52.440625000000004,68.56082472120013L53.1975,150.25305339268274L53.305625,-84.63543646676203L53.846250000000005,132.1234130859375L53.954375,145.64863308497837L54.0625,-139.9850918361119L54.27875,175.703275680542L54.386875,-53.59392912728447L54.495,-102.3904750279018L54.927499999999995,42.8099910071918L55.035625,70.86587313243321L55.251875000000005,36.757232012067504L55.57625,144.10580749511718L56.00875,151.29647107805525L56.116875,158.46895245143344L56.225,39.41464272226605L56.333125,-118.1249540601458L56.87375,-110.36428544180734L56.981875,56.83616433824811L57.089999999999996,39.228893004144936L57.41437500000001,48.4309930597033L57.5225,70.42938194274903L57.73875,157.9987614767892L58.3875,56.46069568225316L58.60375,89.51313007899692L58.928125,159.83821269444059L59.036249999999995,66.38506532396589L59.2525,-73.3340502057757L59.360625000000006,67.92810311998639L59.90125,170.19296657017298L60.009375,55.845897061484195L60.441874999999996,140.4337149483817L60.658125,-46.694913973127115L60.982499999999995,152.89934136526927L61.415,181.25890045166017L61.847500000000004,151.75385251726422L62.06375,196.1285622188023L62.712500000000006,-117.10097252982007L62.928749999999994,161.32610582624162L63.036875,68.1482790674482L63.469375,171.60050108773368L63.5775,49.23992173331125L63.685625,162.9419110434396L64.01,-89.81698036193848L64.11812499999999,-96.74439255850655L64.22625000000001,137.25366096496583L65.30749999999999,46.85011987004961L65.84812500000001,159.38006924220494L66.605,-103.7717056274414L67.578125,177.18317249843054L67.794375,47.18316296849932L68.22687499999999,123.40446968078612L69.2,-90.0466067177909L69.308125,21.60062652315412L69.41624999999999,-67.51033188956126L69.84875,-52.51264228820801L70.49749999999999,70.86524374825613L71.254375,-39.18049131120955L71.3625,56.39583052907672L71.470625,-111.29118265424455L71.57875,55.54039012363978L71.795,148.2707970755441L71.90312499999999,40.445525926351536L72.2275,-96.8378500802176L72.335625,-28.828385189601363L72.87625,14.808440290178567L72.984375,-93.99762496948244L73.416875,146.96939457484655L74.17375,179.8861484527588L74.498125,153.8512499673026L74.60625,152.97474207196916L74.82249999999999,-84.25819178989951L75.36312500000001,-15.731045150756842L76.5525,101.32313592093332L76.876875,-120.48836157662527L76.985,-116.18714528764997L77.093125,102.9932418005807L77.309375,151.0060476575579L77.525625,-111.75137100219729L77.63374999999999,75.54655502864291L77.85000000000001,156.4918855394636L78.390625,191.92889622279577L78.49875,59.1607381275722L79.1475,-87.19387108939031L79.36375,-90.09093851361956L79.471875,161.7380076272147L79.58,26.787826435906567L79.68812500000001,178.95843135288783L79.79625,135.3772762298584L79.904375,-92.99638808114184L80.12062499999999,157.31031646728516L80.22875,40.4957508138248L80.336875,-67.614544405256L80.985625,-96.38399897984095L81.09374999999999,175.42263303484236L81.31,32.947090617247994L81.7425,-95.38588730948311L81.95875,46.15476851463319L82.17500000000001,158.12453220912388L82.6075,-57.093285860334106L82.715625,62.240440300532754L82.82375,-109.76404102870396L83.25625,-94.46626298086983L83.68875,158.94517201014926L83.796875,33.7721538918359L84.12125,140.7472495487758L84.33749999999999,171.57307826450892L84.44562499999999,50.80299130848476L84.55375000000001,49.26534668377468L84.661875,-60.020226124354764L85.094375,-138.39589920043943L85.2025,160.66862362452915L85.74312499999999,-120.30463927132746L85.85125,-86.1490161895752L86.175625,157.21616445268904L86.28375,58.58148283277238L86.608125,144.03274105616978L86.82437499999999,70.9911061150687L87.256875,-32.09185066223145L87.47312500000001,-12.987108584812717L87.689375,159.72426763262067L87.905625,-101.76938618251256L88.22999999999999,145.2357377733503L88.6625,166.90701206752232L88.770625,31.664528948920093L88.986875,-81.39783603123254L89.31125,-98.94326313563755L89.74374999999999,166.68291271754674L90.28437500000001,-96.53141474042621L91.04125,66.23475825445992L91.14937499999999,128.2693634033203L91.36562500000001,163.0469627380371L91.47375,45.632214464460105L91.581875,143.6740740639823L91.69,-75.48583995274137L91.90625,-11.379907362801674L92.230625,164.88880609784806L92.663125,-67.64011524745396L92.77125000000001,71.76192810876029L93.20375,165.15581932067872L93.52812499999999,-111.44826344081338L93.744375,136.0884272984096L93.960625,189.87060258047921L94.285,71.80774534770421L94.393125,174.23475118364607L94.50125,48.26039498192924L94.60937500000001,151.20901320321218L94.7175,-111.94376482282365L95.15,-148.58997443062918L95.36625,147.85713975088936L95.474375,-12.623864691598044L95.58250000000001,84.28486706869941L95.690625,187.65601910182409L95.79875,80.12362485613143L95.906875,-83.12182780674522L96.123125,140.57360703604562L96.23125,25.226624516078402L96.988125,25.117232240949363L97.3125,70.31034634453911L97.420625,42.9997663123267L97.52875,150.4603595188686L97.745,-44.237248338971824L98.06937500000001,48.7856088433947L98.285625,176.09410155160086L98.50187500000001,178.05879298618862L99.799375,196.93786828177315L99.90750000000001,163.35334984915596L100.015625,156.2293093545096L100.12375,122.93698915754047L100.66437499999999,161.8917124067034L101.313125,189.294057737078L102.07,-68.11128044128418L102.39437500000001,22.147116463524952L102.5025,137.69019797188895L102.826875,143.34742126464843L102.935,22.98423841340201L103.043125,-102.93410862513952L103.259375,-80.2973927634103L103.475625,50.015757097516754L104.124375,-21.647053854806074L104.44875,50.40257757731847L104.55687499999999,-94.62093233381L104.88125000000001,49.34317208698819L104.989375,-131.75405861990794L105.0975,161.80386870247978L105.31375,-71.9664008004325L105.421875,170.69161246163503L105.53,-79.4790968758719L106.07062499999999,-82.66112823486327L106.503125,20.972883326666675L106.61125,157.58788212367466L106.8275,163.1737366267613L107.04374999999999,-66.70118980407713L107.26,40.72299286467688L107.368125,96.10787053789412L107.47625,153.0602611541748L107.584375,-91.60199105398999L107.69250000000001,159.86999538966586L107.800625,70.12246431623187L108.016875,-56.762736184256426L108.233125,159.17611983163016L108.44937499999999,-126.27506920950754L108.77375,181.75059176853725L108.99,135.62325210571288L109.09812500000001,132.7149088178362L109.20625,-105.03727422441756L109.63875,-62.691824504307334L109.85499999999999,3.4362856864929086L109.96312499999999,-104.79621767316547L110.17937500000001,42.89238848856519L110.50375000000001,144.5898786817278L110.93624999999999,171.84270548139298L111.260625,23.21375987189157L111.58500000000001,38.84177787729672L111.693125,-50.2862331390381L112.34187499999999,188.9312913077218L112.8825,152.9385898590088L113.09875,128.8366386958531L113.206875,63.78455600738526L113.315,34.59122535671506L113.423125,-131.15212620326452L113.7475,-97.26487639290946L114.39625000000001,47.619030802590515L114.6125,-56.53571417672296L114.720625,36.63535680004529L114.82875000000001,-35.061680684770835L115.045,162.8955150604248L115.4775,162.04903433663503L115.69375,130.66173706054687L115.80187500000001,165.84038674490793L116.23437499999999,-97.90414744785852L116.3425,37.109030487707685L116.450625,114.49613710130964L116.55875,-27.524219185965393L116.883125,148.88187364850725L116.99125,42.66611884832383L117.099375,166.68094498770577L117.31562500000001,-99.74213251386368L117.64,-109.43751362391885L117.85625,138.67359025137765L117.964375,-84.04259997776575L118.180625,-117.06798411778044L118.28875000000001,40.07171799455372L118.613125,46.352262517384105L118.9375,-113.85813446044921L119.045625,143.8697956630162L119.8025,-129.49857722691127L119.910625,175.60317224775042L120.01875,-101.85660291399273L120.12687500000001,49.86285894257682L120.235,72.73459192003523L120.343125,34.74231945787156L120.45125,172.5158909388951L120.6675,-99.48324099949429L120.775625,36.201940640381395L120.88374999999999,47.45748524665834L121.20812500000001,-125.3378317696708L121.31625,-133.87083435058594L121.424375,53.22011712619236L121.5325,67.36906287329538L121.74875,154.1398985726493L122.3975,174.53243784223284L122.505625,-29.299029513767778L122.83,61.79988343375069L123.586875,59.26459133965629L123.91125,53.62298690250941L124.668125,144.14415893554687L124.77624999999999,20.275854819161538L124.88437499999999,173.5980169568743L125.10062500000001,-112.93208607264927L125.20875,178.0131107875279L125.316875,149.49759946550643L125.64125,44.55608688763209L125.749375,79.01472710200717L125.965625,147.24458738054548L126.181875,178.09930507114956L126.28999999999999,68.6075148991176L126.7225,142.51773376464843L126.830625,-72.00893848964148L127.26312499999999,-26.346971757071373L127.37125,160.32378861563546L127.479375,169.16757676260812L127.5875,-104.14606622968398L128.45250000000001,-105.25345442635671L128.560625,43.56504252638135L129.425625,178.3225170135498L129.75,-21.50698332105361L129.858125,160.58825536455427L130.074375,155.04432122366768L130.290625,-32.614760398864746L130.39875,-78.4306055341448L130.723125,154.35627168927874L130.83125,172.05806579589844L131.04749999999999,66.85007412774222L131.155625,-113.10078996930804L131.26375000000002,126.51075308663505L131.371875,173.29818894522532L131.69625000000002,-91.41150708879746L132.56125,68.55022405896868L132.7775,58.635322911398745L132.99375,-66.06853572300503L133.21,-22.08183533804757L133.318125,147.74038778032576L133.42625,-116.97311831883025L133.6425,-87.97551318577354L133.85875,151.5145804268973L133.966875,-118.081201008388L134.07500000000002,-129.03745324271063L134.399375,51.007219239643646L134.615625,-41.116505977085666L135.3725,191.1503504071917L135.480625,52.2052315235138L135.805,146.3160407475063L136.02125,22.060695505142206L136.67,46.936132693290716L136.778125,6.1038642065865645L136.99437500000002,82.17128889901298L137.210625,-97.02173636300222L137.643125,143.10264145987375L137.859375,109.7112547465733L138.075625,-125.6834770202637L138.291875,31.275066743578236L138.508125,-113.24106788635254L138.83249999999998,163.47015004839216L138.940625,162.10413077218192L139.04875,50.20168586458479L139.15687499999999,-104.71628347124374L139.805625,-89.32703492300851L139.91375,166.74845548357283L140.5625,47.150707483291626L140.77875,-122.5119498661586L141.21125,-72.1154659816197L142.184375,160.63571237836567L142.400625,47.32668607234956L142.725,152.2499905177525L143.1575,29.164339491299216L143.37375,39.680792651857644L143.481875,34.114350189481456L143.59,166.42669307163783L143.914375,48.66510950497218L144.0225,-113.6790228162493L144.23875,45.638021799496244L144.34687499999998,-92.82322785513742L144.455,52.48009396280561L144.77937500000002,-92.95680198669436L144.8875,22.43139313970292L145.96875,-92.541389138358L146.185,171.84349643162318L146.29312499999997,-148.43132138933453L146.725625,-99.53056297302248L146.83375,24.304078735624046L147.15812499999998,41.52857597555433L147.26625,49.17751985958644L147.37437500000001,148.24519729614258L148.99625,154.86200719560895L149.320625,190.26685900006976L149.536875,54.83262470790318L149.64499999999998,-112.9114924294608L149.86125,112.93249601636614L149.96937499999999,136.79874883379256L150.29375,-68.13051403590609L150.618125,-41.004629925319136L150.72625000000002,58.79856491088867L150.834375,120.91968024117605L150.9425,160.56868416922433L151.15875,169.0702995300293L151.375,57.069711685180664L151.59124999999997,-99.44089622497557L151.8075,48.250657612936834L151.91562499999998,148.00097694396973L152.131875,-82.69119398934504L152.348125,-98.09722611563546L152.564375,81.2595161982945L152.6725,39.16472159028052L152.780625,-75.70501997811456L152.88875000000002,-42.557414736066534L152.996875,149.69108325413296L154.07812500000003,7.098242977687306L154.510625,170.50342418125697L154.94312499999998,-104.64860899788994L155.05125,63.67392425537109L155.159375,48.14158002989632L155.375625,-69.04683952331541L155.70000000000002,47.038233998843594L156.02437500000002,-4.260819952828513L156.240625,58.90802711759294L156.456875,46.83230419840132L156.565,-96.65741697038925L156.78125,-35.36419985634939L157.21375,60.44859078271048L157.321875,35.41328805429595L157.43,157.5629575456892L157.64625,-122.71461639404299L158.07874999999999,178.68290094648088L158.18687500000001,168.96143777029855L158.295,122.86958476475307L158.403125,160.12022503444126L158.51125000000002,46.051617632593434L158.619375,38.27018981107642L159.16,52.982777799878804L159.268125,118.45993595123292L159.484375,-109.00247170584544L159.916875,159.19844006129674L160.025,59.631047262464264L160.24124999999998,171.10633081708636L160.67375,47.10390879086086L160.89,-93.80924377441409L161.32250000000002,-75.7024059840611L161.430625,38.300975416174964L161.53875,33.46345090014594L161.646875,55.630244963509696L161.86312500000003,-81.57914690290175L162.18749999999997,-93.05508237566266L162.295625,54.543857942308705L162.511875,45.16805689675468L162.62,156.12163402012416L162.728125,-79.71675812857495L163.37687499999998,153.56919904436384L163.593125,-113.85671653747556L163.70125,36.60707550644875L163.9175,157.0694914136614L164.025625,41.6021023954664L164.35000000000002,-76.1799373626709L164.458125,79.7101942062378L164.99875,147.31441285269602L165.106875,45.83779219559261L165.215,55.60990693228584L165.53937499999998,125.70272026062011L165.755625,-127.27768543788369L165.86374999999998,148.936217716762L165.971875,154.43238618033274L166.08,172.31550080435616L166.18812499999999,40.97247195073538L166.29625000000001,16.322695214407787L166.62062500000002,-85.27393586294988L166.945,59.560435662950795L167.485625,159.57883889334542L167.59375,-94.15886306762695L167.701875,-114.04405599321638L167.81,45.97976052761078L168.2425,152.65994388035367L168.67499999999998,-117.19643636431016L168.89124999999999,169.91377078465052L168.999375,-106.65054261343823L170.83749999999998,-97.7898454938616L171.16187499999998,51.86315640040806L171.378125,-87.86881207057405L171.48624999999998,55.82452934810094L171.7025,165.15364903041294L171.810625,167.5589769090925L171.91875000000002,-99.52437041146413L172.13500000000002,53.897258540562206L172.243125,53.398723575047086L172.5675,-61.635076413835776L174.40562500000001,-121.22712838309155L174.51375,137.42364774431502L174.62187500000002,-121.34960027422227L174.73,72.9465593474252L175.1625,168.33929753984722L175.486875,158.15346941266742L175.595,149.27477335248676L175.919375,45.34722279821122L176.0275,174.16858144487654L176.13562499999998,201.02355063302176L176.568125,-29.206758417402L176.67625,41.32753053392682L176.78437499999998,168.92261368887765L177.00062499999999,20.6490748132978L177.10875000000001,-84.15685370309012L177.21687500000002,153.67030563354493L177.43312500000002,-42.99760747637069L177.649375,135.40375377110072L178.298125,-112.85289459228517L178.514375,156.57356561933244L179.055,-101.25440041678291L179.163125,53.026395811353424L180.13625,38.83822583556176L180.24437500000002,150.61435367039272L181.43374999999997,122.41876242501395L181.86625,40.04630238839559L181.974375,39.99616928611485L182.29874999999998,-104.0291695731027L182.406875,52.40772442817688L182.73125000000002,58.75072447913034L182.9475,-80.2965150015695L183.05562500000002,-98.01540134974886L183.16375,46.21275686195918L183.920625,159.3872263772147L184.02875,43.46568482943945L184.136875,146.7235730307443L184.24499999999998,143.1089883531843L184.46125,48.20514421463014L184.56937499999998,114.40133882250106L184.78562499999998,51.399190541676106L184.89375,34.86062589883804L185.001875,-77.57460447038926L185.10999999999999,77.1837496621268L185.650625,158.40898491995677L185.86687500000002,166.99945678710938L186.4075,179.11311999729702L186.84,-124.83499962942938L187.59687499999998,165.7867853982108L187.813125,50.694727584293915L188.894375,23.801939882550926L189.110625,-80.66617813110349L189.21875000000003,-20.40406109946116L189.435,74.54611873626709L189.54312499999997,56.63288771765572L189.759375,173.52377373831612L189.8675,-135.5769911629813L190.51625,137.24230793544226L190.624375,159.20444935389926L191.273125,-33.84246466500417L191.38125,82.50354587009974L192.354375,41.724630653858185L192.4625,41.70077012096132L192.786875,-116.59931716918948L193.003125,157.5267956869943L193.435625,132.89111709594727L194.084375,172.3791433606829L194.300625,-88.8851348876953L194.40875,37.59892871528865L194.625,28.745068349157066L194.949375,31.02222370760782L195.165625,51.27039828300475L195.27375,163.65980448041643L195.70624999999998,-98.00368178231372L195.814375,141.79527789524624L196.030625,76.24430334908622L196.13875000000002,-105.13547744750974L196.246875,-126.63468148367747L196.355,50.40960811206271L196.679375,34.041349160671245L196.7875,36.37102885927473L196.895625,-53.439616666521346L197.544375,-116.15341415405271L197.6525,147.32356665475027L197.760625,149.44867630004882L197.976875,-91.47750320434568L198.19312499999998,41.48681205511093L198.409375,31.856675597599576L198.73375,-91.3814992087228L198.841875,32.601068881579806L199.058125,175.13876871381487L199.16625,149.73489418029786L199.274375,164.61174201965332L199.59875,-89.98387086050855L199.81500000000003,34.14850844826017L199.923125,172.71605922154018L200.2475,162.17710075378417L200.355625,20.549351181302768L200.67999999999998,92.09265992300851L201.00437499999998,-107.950469316755L201.653125,-86.28379603794639L202.085625,63.923592036111L202.30187500000002,124.34759101867675L202.41,49.805641651153564L202.518125,-107.1447804042271L202.8425,69.13555857794626L202.950625,20.542821019036438L203.166875,67.33639759336198L203.599375,169.44085006713868L203.7075,48.174802350997936L203.81562499999998,-117.63564523969376L204.14,-112.43985459463937L204.5725,155.38565483093262L204.680625,50.97327469417026L204.896875,-55.3180077144078L205.11312500000003,189.9084910256522L205.22125,43.879204099518915L205.4375,48.08778094564164L205.761875,52.935924850191384L205.87,54.429752520152505L205.97812499999998,-130.46438533238L206.08625,23.355166339874273L206.51875,-149.56716450282505L206.62687499999998,-31.462080655779175L207.1675,163.6813241141183L207.38375,-92.87186164855956L207.60000000000002,-56.19076341901507L208.0325,131.98488104684012L208.356875,-116.31143057686938L208.573125,138.83089288984027L208.8975,-130.9366597856794L209.005625,53.8125243800027L209.11374999999998,-108.59263409205846L209.32999999999998,-98.38103256225588L209.54625000000001,49.22448494093757L209.76250000000002,29.24123709542411L210.08687500000002,39.89049589378493L210.195,127.95095770699638L210.41125000000002,-149.91240463256838L210.6275,-32.031424958365335L210.951875,28.395495476041503L211.168125,52.724339635031555L211.27624999999998,-121.5841748918806L212.24937500000001,-44.19004211425781L212.35750000000002,38.0177964227008L212.681875,166.4280627659389L213.2225,46.60669046810693L213.655,-120.42658064705984L213.87125,123.32223979404995L214.30375,-86.36999032156808L215.16875,-130.0482683454241L215.276875,4.849573884691495L215.493125,157.19903362819127L215.60125,57.81991953849793L215.70937500000002,142.270465360369L216.141875,29.535192663328985L216.57437499999997,45.83029203414918L216.790625,27.59866858209884L216.89874999999998,38.82803044489452L217.115,41.12737370559148L217.5475,-97.36812433515274L217.87187500000002,-89.17240415300643L218.19625000000002,148.36905817304338L218.520625,-124.15729032244002L218.953125,37.14353410899639L219.169375,-121.25043247767854L219.601875,-93.22308213370184L220.034375,35.069275193555L220.1425,148.55623365129742L220.25062499999999,-61.13333424159458L220.79125,-118.90006599426272L220.899375,147.59634802682058L221.115625,-82.97633154732841L221.22375,37.04982316068242L221.331875,35.514173695870824L221.548125,51.960055037907196L221.65625,-52.730510493687234L221.980625,156.54298864092146L222.08875,27.726965291159473L222.305,177.3592650277274L222.52125,60.808743218013234L222.629375,-44.60855124337331L222.73749999999998,22.43736867223467L223.49437500000002,45.5001173360007L223.710625,47.95702698571341L223.81875,-76.65845260620117L224.575625,-109.48535646711076L224.68374999999997,153.51101597377232L224.791875,38.77909567441259L224.9,85.57278965541293L225.11625,33.072274768352514L225.440625,-125.16625344412671L226.30562500000002,-103.3340304238456L226.41375,158.35866312299456L226.954375,30.111130428314198L227.386875,-99.30678193228584L227.71125,143.2211585998535L227.819375,18.915258857182096L228.14375,46.747618869372786L228.251875,-156.2064393179757L228.35999999999999,168.1944186074393L228.46812500000001,9.192980616433289L228.57625,44.87402657440731L228.900625,-99.76830139160154L229.225,186.81979179382324L229.65750000000003,146.95204189845495L229.765625,-150.36986323765342L229.87375,143.6036891392299L230.198125,-62.694129834856284L230.414375,32.26856594426292L230.630625,118.91646374293735L230.84687499999998,-4.624690818786604L230.955,133.8557194846017L231.063125,178.27845529828753L231.27937500000002,146.41423432486397L231.3875,33.03588683775493L231.928125,55.06746940612793L232.2525,59.64974551882064L232.46874999999997,181.0592241014753L232.793125,40.45393971971103L233.1175,67.74291466304233L233.225625,48.26479705401829L233.441875,-67.71998192923411L234.415,188.69698677062988L234.63125000000002,30.52295506341116L234.8475,-140.4277345929827L235.388125,-112.56232648577009L235.82062499999998,149.06358964102608L235.92875,-97.5465800694057L236.036875,-128.39641701834546L236.14499999999998,152.65235268729074L237.44250000000002,113.00982586996896L237.65875,36.22430502942632L237.875,51.39528643063136L238.09125,51.274226433890206L238.199375,-105.94351991925919L238.52375,129.16181569780622L238.63187499999998,157.29361970084054L238.74,168.57039004734585L238.848125,53.20584626197815L238.95624999999998,50.64002541814531L239.064375,31.560440019198836L239.17249999999999,145.82337521144322L239.38875000000002,171.78260290963308L239.496875,68.77359274455479L239.605,159.51357585362027L239.82125,181.30830590384346L240.68625,-127.41527219499864L240.9025,25.826782117571156L241.010625,137.62357488359723L241.226875,34.30924466678073L241.55125,29.1811514036996L241.875625,-117.5027559552874L242.091875,36.22297241091729L242.41625000000002,59.80033472606114L242.524375,51.82127341542926L242.74062500000002,-104.98288192749021L242.84875,44.63514573914665L243.173125,-153.46784166608535L243.389375,26.687575905663635L243.4975,-124.64308809552875L244.3625,-39.40545877729144L244.47062499999998,25.939649268559037L244.68687500000001,-106.61984024047854L245.87625,-97.07253080095563L245.984375,172.87694042750766L246.200625,54.39397890227181L246.30875,53.75792349406652L246.525,154.66516669137138L246.74124999999998,165.7355376107352L247.06562499999998,151.70407088143486L247.17375,51.08634199414935L247.60625,140.96553252083913L248.146875,-89.1863036564418L248.363125,175.40220336914064L249.011875,96.35090928758893L249.12,-39.9438981464931L249.22812499999998,-111.70964355468749L249.33625,62.02352461133685L249.444375,-60.51525486537386L249.76874999999998,-101.17628925868445L249.985,169.68654621669225L250.309375,-144.0162950788225L250.4175,5.275449943542469L250.741875,53.608043248312825L250.958125,43.956874568121776L251.174375,130.23663024902345L251.2825,-41.17953120640348L251.390625,139.51166954040528L251.823125,172.12375324794223L252.255625,131.19226210457938L252.36375,-102.04646955217635L252.471875,137.4251621246338L252.904375,152.37587699890136L253.01250000000002,128.67380905151367L253.22875,143.25488008771623L253.33687500000002,149.5777072906494L253.553125,168.5450989314488L253.66125,-97.9608257838658L253.985625,-110.5261215754918L254.09375,67.74181987217496L254.201875,110.00901374816894L254.31,52.351304115567885L254.634375,-86.74397474016462L254.85062499999998,15.577617686135426L254.95875,-93.51072758265906L255.6075,143.20809827532088L255.715625,49.219174964087344L255.82375000000002,48.8535051686423L256.25625,-68.88079784938267L256.47249999999997,-111.7799030848912L256.68875,169.24459795270647L257.12125,-117.86992083958216L257.878125,43.55204489912305L258.2025,45.56188198838916L258.41875,-123.06561502729141L258.635,7.725623253413602L258.743125,45.761625858715604L258.95937499999997,33.393014430999756L259.175625,66.86174787793841L259.391875,127.797465133667L259.5,136.18951459612165L259.608125,-116.79225115094863L259.71625,-89.32254965645927L259.9325,153.2529347011021L260.04062500000003,136.67680745806013L260.365,38.677827971322216L260.473125,157.95776710510253L260.7975,-122.97866837637764L261.121875,31.020136611802258L261.554375,-132.07011075701035L262.203125,159.1089951651437L262.31125,162.92997926984515L262.635625,-123.16063515799385L262.74375,-127.310500226702L262.96,9.333268179212297L263.17625,-136.7684708731515L263.284375,159.32283145359585L263.500625,56.39427515438625L263.60875,146.2305023738316L263.825,29.592347860336304L263.933125,50.85684826714652L264.04125,-102.91214528764999L265.1225,-140.18379396711077L265.230625,66.53597766331264L265.446875,144.3222867148263L265.77125,157.22993856157575L265.9875,-118.90097269330704L266.311875,-95.46696935381209L266.960625,166.59358357020787L267.609375,146.15984736851283L268.041875,-95.87501286097933L269.123125,-100.22456392560684L269.4475,29.325376234735756L270.09625,-149.37959354945593L270.20437499999997,-97.60550586155483L270.420625,158.15300641741072L270.745,187.06163929530553L270.853125,178.9653955732073L271.069375,15.857847976684582L271.1775,50.29210497992378L271.285625,63.158943312508725L272.25875,159.94748922075544L272.366875,148.1792011805943L272.475,39.32926335249627L272.583125,56.77523102760314L272.799375,-118.30026528494699L273.015625,-70.85969745091032L273.34,52.4561026096344L273.448125,46.98222182137627L273.880625,152.36349187578475L274.096875,-86.74440879821776L274.205,165.15395769391742L274.313125,153.81558004106793L274.42125,-42.94783066340855" style="fill: none;" fill="none"></path></g></g></g></g></g></g><g transform="translate(48, 177)" clip-path="url(#clip_1)"><clipPath id="clip_1"><rect width="281" height="23"></rect></clipPath><g><g><line x1="0" y1="0" x2="0" y2="5" style="visibility: inherit;" fill="rgb(0, 0, 0)" stroke="rgb(204, 204, 204)" stroke-width="1px"></line><line x1="21.625" y1="0" x2="21.625" y2="5" style="visibility: inherit;" fill="rgb(0, 0, 0)" stroke="rgb(204, 204, 204)" stroke-width="1px"></line><line x1="43.25" y1="0" x2="43.25" y2="5" style="visibility: inherit;" fill="rgb(0, 0, 0)" stroke="rgb(204, 204, 204)" stroke-width="1px"></line><line x1="64.875" y1="0" x2="64.875" y2="5" style="visibility: inherit;" fill="rgb(0, 0, 0)" stroke="rgb(204, 204, 204)" stroke-width="1px"></line><line x1="86.5" y1="0" x2="86.5" y2="5" style="visibility: inherit;" fill="rgb(0, 0, 0)" stroke="rgb(204, 204, 204)" stroke-width="1px"></line><line x1="108.125" y1="0" x2="108.125" y2="5" style="visibility: inherit;" fill="rgb(0, 0, 0)" stroke="rgb(204, 204, 204)" stroke-width="1px"></line><line x1="129.75" y1="0" x2="129.75" y2="5" style="visibility: inherit;" fill="rgb(0, 0, 0)" stroke="rgb(204, 204, 204)" stroke-width="1px"></line><line x1="151.375" y1="0" x2="151.375" y2="5" style="visibility: inherit;" fill="rgb(0, 0, 0)" stroke="rgb(204, 204, 204)" stroke-width="1px"></line><line x1="173" y1="0" x2="173" y2="5" style="visibility: inherit;" fill="rgb(0, 0, 0)" stroke="rgb(204, 204, 204)" stroke-width="1px"></line><line x1="194.625" y1="0" x2="194.625" y2="5" style="visibility: inherit;" fill="rgb(0, 0, 0)" stroke="rgb(204, 204, 204)" stroke-width="1px"></line><line x1="216.25" y1="0" x2="216.25" y2="5" style="visibility: inherit;" fill="rgb(0, 0, 0)" stroke="rgb(204, 204, 204)" stroke-width="1px"></line><line x1="237.875" y1="0" x2="237.875" y2="5" style="visibility: inherit;" fill="rgb(0, 0, 0)" stroke="rgb(204, 204, 204)" stroke-width="1px"></line><line x1="259.5" y1="0" x2="259.5" y2="5" style="visibility: inherit;" fill="rgb(0, 0, 0)" stroke="rgb(204, 204, 204)" stroke-width="1px"></line><line x1="281.125" y1="0" x2="281.125" y2="5" style="visibility: inherit;" fill="rgb(0, 0, 0)" stroke="rgb(204, 204, 204)" stroke-width="1px"></line></g><g transform="translate(0, 8)"><text x="0" y="0" dx="0em" dy="0.95em" style="text-anchor: middle; visibility: hidden; font-family: &quot;Helvetica Neue&quot;, sans-serif; font-size: 12px; font-weight: 200;" fill="rgb(50, 49, 63)" stroke="none" stroke-width="1px">-200</text><text x="21.625" y="0" dx="0em" dy="0.95em" style="text-anchor: middle; visibility: inherit; font-family: &quot;Helvetica Neue&quot;, sans-serif; font-size: 12px; font-weight: 200;" fill="rgb(50, 49, 63)" stroke="none" stroke-width="1px">0</text><text x="43.25" y="0" dx="0em" dy="0.95em" style="text-anchor: middle; visibility: hidden; font-family: &quot;Helvetica Neue&quot;, sans-serif; font-size: 12px; font-weight: 200;" fill="rgb(50, 49, 63)" stroke="none" stroke-width="1px">200</text><text x="64.875" y="0" dx="0em" dy="0.95em" style="text-anchor: middle; visibility: inherit; font-family: &quot;Helvetica Neue&quot;, sans-serif; font-size: 12px; font-weight: 200;" fill="rgb(50, 49, 63)" stroke="none" stroke-width="1px">400</text><text x="86.5" y="0" dx="0em" dy="0.95em" style="text-anchor: middle; visibility: hidden; font-family: &quot;Helvetica Neue&quot;, sans-serif; font-size: 12px; font-weight: 200;" fill="rgb(50, 49, 63)" stroke="none" stroke-width="1px">600</text><text x="108.125" y="0" dx="0em" dy="0.95em" style="text-anchor: middle; visibility: inherit; font-family: &quot;Helvetica Neue&quot;, sans-serif; font-size: 12px; font-weight: 200;" fill="rgb(50, 49, 63)" stroke="none" stroke-width="1px">800</text><text x="129.75" y="0" dx="0em" dy="0.95em" style="text-anchor: middle; visibility: hidden; font-family: &quot;Helvetica Neue&quot;, sans-serif; font-size: 12px; font-weight: 200;" fill="rgb(50, 49, 63)" stroke="none" stroke-width="1px">1k</text><text x="151.375" y="0" dx="0em" dy="0.95em" style="text-anchor: middle; visibility: inherit; font-family: &quot;Helvetica Neue&quot;, sans-serif; font-size: 12px; font-weight: 200;" fill="rgb(50, 49, 63)" stroke="none" stroke-width="1px">1.2k</text><text x="173" y="0" dx="0em" dy="0.95em" style="text-anchor: middle; visibility: hidden; font-family: &quot;Helvetica Neue&quot;, sans-serif; font-size: 12px; font-weight: 200;" fill="rgb(50, 49, 63)" stroke="none" stroke-width="1px">1.4k</text><text x="194.625" y="0" dx="0em" dy="0.95em" style="text-anchor: middle; visibility: inherit; font-family: &quot;Helvetica Neue&quot;, sans-serif; font-size: 12px; font-weight: 200;" fill="rgb(50, 49, 63)" stroke="none" stroke-width="1px">1.6k</text><text x="216.25" y="0" dx="0em" dy="0.95em" style="text-anchor: middle; visibility: hidden; font-family: &quot;Helvetica Neue&quot;, sans-serif; font-size: 12px; font-weight: 200;" fill="rgb(50, 49, 63)" stroke="none" stroke-width="1px">1.8k</text><text x="237.875" y="0" dx="0em" dy="0.95em" style="text-anchor: middle; visibility: inherit; font-family: &quot;Helvetica Neue&quot;, sans-serif; font-size: 12px; font-weight: 200;" fill="rgb(50, 49, 63)" stroke="none" stroke-width="1px">2k</text><text x="259.5" y="0" dx="0em" dy="0.95em" style="text-anchor: middle; visibility: hidden; font-family: &quot;Helvetica Neue&quot;, sans-serif; font-size: 12px; font-weight: 200;" fill="rgb(50, 49, 63)" stroke="none" stroke-width="1px">2.2k</text><text x="281.125" y="0" dx="0em" dy="0.95em" style="text-anchor: middle; visibility: hidden; font-family: &quot;Helvetica Neue&quot;, sans-serif; font-size: 12px; font-weight: 200;" fill="rgb(50, 49, 63)" stroke="none" stroke-width="1px">2.4k</text></g><line x1="0" y1="0" x2="281.125" y2="0" fill="rgb(0, 0, 0)" stroke="rgb(204, 204, 204)" stroke-width="1px"></line></g></g></g></g></svg>