<svg viewBox="0 0 330 200" xmlns="http://www.w3.org/2000/svg"><g><g><g><g><g><line x1="48.875" y1="177" x2="43.875" y2="177" style="visibility: inherit;" fill="rgb(0, 0, 0)" stroke="rgb(204, 204, 204)" stroke-width="1px"></line><line x1="48.875" y1="151.71428571428572" x2="43.875" y2="151.71428571428572" style="visibility: inherit;" fill="rgb(0, 0, 0)" stroke="rgb(204, 204, 204)" stroke-width="1px"></line><line x1="48.875" y1="126.42857142857143" x2="43.875" y2="126.42857142857143" style="visibility: inherit;" fill="rgb(0, 0, 0)" stroke="rgb(204, 204, 204)" stroke-width="1px"></line><line x1="48.875" y1="101.14285714285715" x2="43.875" y2="101.14285714285715" style="visibility: inherit;" fill="rgb(0, 0, 0)" stroke="rgb(204, 204, 204)" stroke-width="1px"></line><line x1="48.875" y1="75.85714285714286" x2="43.875" y2="75.85714285714286" style="visibility: inherit;" fill="rgb(0, 0, 0)" stroke="rgb(204, 204, 204)" stroke-width="1px"></line><line x1="48.875" y1="50.57142857142857" x2="43.875" y2="50.57142857142857" style="visibility: inherit;" fill="rgb(0, 0, 0)" stroke="rgb(204, 204, 204)" stroke-width="1px"></line><line x1="48.875" y1="25.285714285714306" x2="43.875" y2="25.285714285714306" style="visibility: inherit;" fill="rgb(0, 0, 0)" stroke="rgb(204, 204, 204)" stroke-width="1px"></line><line x1="48.875" y1="0" x2="43.875" y2="0" style="visibility: inherit;" fill="rgb(0, 0, 0)" stroke="rgb(204, 204, 204)" stroke-width="1px"></line></g><g transform="translate(38.875, 0)"><text x="0" y="177" dx="0em" dy="0.3em" style="text-anchor: end; visibility: hidden; font-family: &quot;Helvetica Neue&quot;, sans-serif; font-size: 12px; font-weight: 200;" fill="rgb(50, 49, 63)" stroke="none" stroke-width="1px">-300</text><text x="0" y="151.71428571428572" dx="0em" dy="0.3em" style="text-anchor: end; visibility: inherit; font-family: &quot;Helvetica Neue&quot;, sans-serif; font-size: 12px; font-weight: 200;" fill="rgb(50, 49, 63)" stroke="none" stroke-width="1px">-250</text><text x="0" y="126.42857142857143" dx="0em" dy="0.3em" style="text-anchor: end; visibility: inherit; font-family: &quot;Helvetica Neue&quot;, sans-serif; font-size: 12px; font-weight: 200;" fill="rgb(50, 49, 63)" stroke="none" stroke-width="1px">-200</text><text x="0" y="101.14285714285715" dx="0em" dy="0.3em" style="text-anchor: end; visibility: inherit; font-family: &quot;Helvetica Neue&quot;, sans-serif; font-size: 12px; font-weight: 200;" fill="rgb(50, 49, 63)" stroke="none" stroke-width="1px">-150</text><text x="0" y="75.85714285714286" dx="0em" dy="0.3em" style="text-anchor: end; visibility: inherit; font-family: &quot;Helvetica Neue&quot;, sans-serif; font-size: 12px; font-weight: 200;" fill="rgb(50, 49, 63)" stroke="none" stroke-width="1px">-100</text><text x="0" y="50.57142857142857" dx="0em" dy="0.3em" style="text-anchor: end; visibility: inherit; font-family: &quot;Helvetica Neue&quot;, sans-serif; font-size: 12px; font-weight: 200;" fill="rgb(50, 49, 63)" stroke="none" stroke-width="1px">-50</text><text x="0" y="25.285714285714306" dx="0em" dy="0.3em" style="text-anchor: end; visibility: inherit; font-family: &quot;Helvetica Neue&quot;, sans-serif; font-size: 12px; font-weight: 200;" fill="rgb(50, 49, 63)" stroke="none" stroke-width="1px">0</text><text x="0" y="0" dx="0em" dy="0.3em" style="text-anchor: end; visibility: hidden; font-family: &quot;Helvetica Neue&quot;, sans-serif; font-size: 12px; font-weight: 200;" fill="rgb(50, 49, 63)" stroke="none" stroke-width="1px">50</text></g><line x1="48.875" y1="0" x2="48.875" y2="177" fill="rgb(0, 0, 0)" stroke="rgb(204, 204, 204)" stroke-width="1px"></line></g></g><g transform="translate(48, 0)" clip-path="url(#clip_0)"><clipPath id="clip_0"><rect width="281" height="177"></rect></clipPath><g><g><g><line x1="0" y1="0" x2="0" y2="177" fill="rgb(0, 0, 0)" stroke="rgb(60, 60, 60)" stroke-width="1px" opacity="0.25"></line><line x1="25.556818181818183" y1="0" x2="25.556818181818183" y2="177" fill="rgb(0, 0, 0)" stroke="rgb(60, 60, 60)" stroke-width="1px" opacity="0.25"></line><line x1="51.11363636363637" y1="0" x2="51.11363636363637" y2="177" fill="rgb(0, 0, 0)" stroke="rgb(60, 60, 60)" stroke-width="1px" opacity="0.25"></line><line x1="76.67045454545455" y1="0" x2="76.67045454545455" y2="177" fill="rgb(0, 0, 0)" stroke="rgb(60, 60, 60)" stroke-width="1px" opacity="0.25"></line><line x1="102.22727272727273" y1="0" x2="102.22727272727273" y2="177" fill="rgb(0, 0, 0)" stroke="rgb(60, 60, 60)" stroke-width="1px" opacity="0.25"></line><line x1="127.7840909090909" y1="0" x2="127.7840909090909" y2="177" fill="rgb(0, 0, 0)" stroke="rgb(60, 60, 60)" stroke-width="1px" opacity="0.25"></line><line x1="153.3409090909091" y1="0" x2="153.3409090909091" y2="177" fill="rgb(0, 0, 0)" stroke="rgb(60, 60, 60)" stroke-width="1px" opacity="0.25"></line><line x1="178.89772727272728" y1="0" x2="178.89772727272728" y2="177" fill="rgb(0, 0, 0)" stroke="rgb(60, 60, 60)" stroke-width="1px" opacity="0.25"></line><line x1="204.45454545454547" y1="0" x2="204.45454545454547" y2="177" fill="rgb(0, 0, 0)" stroke="rgb(60, 60, 60)" stroke-width="1px" opacity="0.25"></line><line x1="230.01136363636365" y1="0" x2="230.01136363636365" y2="177" fill="rgb(0, 0, 0)" stroke="rgb(60, 60, 60)" stroke-width="1px" opacity="0.25"></line><line x1="255.5681818181818" y1="0" x2="255.5681818181818" y2="177" fill="rgb(0, 0, 0)" stroke="rgb(60, 60, 60)" stroke-width="1px" opacity="0.25"></line><line x1="281.125" y1="0" x2="281.125" y2="177" fill="rgb(0, 0, 0)" stroke="rgb(60, 60, 60)" stroke-width="1px" opacity="0.25"></line></g><g><line x1="0" y1="177" x2="281.125" y2="177" fill="rgb(0, 0, 0)" stroke="rgb(60, 60, 60)" stroke-width="1px" opacity="0.25"></line><line x1="0" y1="151.71428571428572" x2="281.125" y2="151.71428571428572" fill="rgb(0, 0, 0)" stroke="rgb(60, 60, 60)" stroke-width="1px" opacity="0.25"></line><line x1="0" y1="126.42857142857143" x2="281.125" y2="126.42857142857143" fill="rgb(0, 0, 0)" stroke="rgb(60, 60, 60)" stroke-width="1px" opacity="0.25"></line><line x1="0" y1="101.14285714285715" x2="281.125" y2="101.14285714285715" fill="rgb(0, 0, 0)" stroke="rgb(60, 60, 60)" stroke-width="1px" opacity="0.25"></line><line x1="0" y1="75.85714285714286" x2="281.125" y2="75.85714285714286" fill="rgb(0, 0, 0)" stroke="rgb(60, 60, 60)" stroke-width="1px" opacity="0.25"></line><line x1="0" y1="50.57142857142857" x2="281.125" y2="50.57142857142857" fill="rgb(0, 0, 0)" stroke="rgb(60, 60, 60)" stroke-width="1px" opacity="0.25"></line><line x1="0" y1="25.285714285714306" x2="281.125" y2="25.285714285714306" fill="rgb(0, 0, 0)" stroke="rgb(60, 60, 60)" stroke-width="1px" opacity="0.25"></line><line x1="0" y1="0" x2="281.125" y2="0" fill="rgb(0, 0, 0)" stroke="rgb(60, 60, 60)" stroke-width="1px" opacity="0.25"></line></g></g></g><g><g><line x1="0" y1="25.285714285714306" x2="281.125" y2="25.285714285714306" fill="rgb(0, 0, 0)" stroke="rgb(153, 153, 153)" stroke-width="1.5px"></line></g></g><g><g><line x1="25.556818181818183" y1="0" x2="25.556818181818183" y2="177" fill="rgb(0, 0, 0)" stroke="rgb(153, 153, 153)" stroke-width="1.5px"></line></g></g><g><g><g><g><g><path stroke="rgb(255, 112, 67)" stroke-width="2px" d="M25.812386363636364,82.76947684151787L26.067954545454544,153.24773119260706L26.323522727272728,149.0460012756956L26.579090909090908,134.80773968647236L26.834659090909092,123.53498299209475L27.090227272727272,129.93734783178274L27.345795454545456,147.86518566159694L27.601363636363633,144.91816832414622L27.856931818181817,156.44789002198982L28.1125,154.52689882147953L28.36806818181818,145.50493852161662L28.623636363636365,147.830847027945L28.879204545454545,153.87263963841266L29.13477272727273,149.04205084527436L29.390340909090906,150.86268706354178L29.64590909090909,158.17605793223962L29.901477272727274,153.17389371793897L30.157045454545454,150.68108769188484L30.412613636363638,147.54908828074386L30.668181818181818,152.0506228554261L30.923750000000002,147.88943173148346L31.179318181818182,146.09331691867547L31.434886363636362,143.03778399774842L31.690454545454546,141.20280846877915L31.946022727272727,141.66379172186907L32.20159090909091,143.2161032038092L32.45715909090909,142.87655932539298L32.71272727272727,144.14805556742255L32.968295454545455,146.8655051863213L33.22386363636364,148.2009689772031L33.47943181818182,154.09278413020857L33.735,154.160067946306L33.99056818181818,151.5989611189309L34.24613636363636,151.4718894906444L34.501704545454544,155.07818045318194L34.75727272727273,151.71811758652112L35.01284090909091,152.55128765830202L35.26840909090909,154.56020918250553L35.52397727272727,154.55924653508185L35.77954545454545,155.48314887378643L36.03511363636363,153.67205965806772L36.29068181818182,154.62931527721838L36.54625,153.95365942290937L36.801818181818184,151.7979214481754L37.05738636363636,149.8254470656068L37.312954545454545,148.20291953255847L37.56852272727273,152.94274479610237L37.82409090909091,156.51524970791303L38.0796590909091,156.8011932207334L38.33522727272727,154.93961128848588L38.59079545454545,153.2670618447372L38.846363636363634,154.72954335025656L39.10193181818182,153.26687311845328L39.3575,155.05740737806673L39.61306818181818,153.92446132981664L39.86863636363636,154.21083259442543L40.124204545454546,151.44821665616394L40.37977272727273,150.24408026241102L40.63534090909091,147.48928565698364L40.89090909090909,147.17075682837128L41.146477272727275,146.15788500599533L41.40204545454546,144.8393634474529L41.65761363636364,144.37097875735122L41.91318181818181,144.4986375043773L42.168749999999996,145.15294768844115L42.42431818181818,145.63886194288455L42.67988636363636,145.70061140336605L42.93545454545455,145.07113740958033L43.191022727272724,144.5249240377265L43.44659090909091,144.95454461283128L43.70215909090909,145.43549011128152L43.957727272727276,145.3359481313086L44.21329545454546,145.9541116346868L44.468863636363636,145.71773727326735L44.72443181818182,145.58329727891856L44.980000000000004,145.85237014866462L45.23556818181819,143.5133046956999L45.49113636363636,142.69231242685584L45.74670454545454,142.24041433393094L46.002272727272725,140.86100032352056L46.25784090909091,141.0302177286249L46.51340909090909,139.81389612467433L46.76897727272727,136.5785246330277L47.02454545454545,136.6554251408625L47.28011363636364,136.49152746651856L47.53568181818182,136.44878361294764L47.791250000000005,135.50247842652993L48.04681818181818,135.64334761289822L48.302386363636366,135.9488991064324L48.55795454545454,134.46577766335048L48.813522727272726,134.55765159214155L49.06909090909091,133.29400524644754L49.32465909090909,133.779762329691L49.58022727272727,133.7759022421364L49.835795454545455,131.3990789784679L50.09136363636364,131.40478784067963L50.346931818181815,130.50495656099608L50.6025,129.6728562471331L50.85806818181818,128.89007664957455L51.11363636363637,128.20822474843507L51.36920454545455,128.44621242290214L51.62477272727273,127.58780496191356L51.880340909090904,126.91970178170232L52.13590909090909,126.4017937028674L52.39147727272727,125.4177965484655L52.647045454545456,125.58698387243874L52.90261363636363,124.99868097119018L53.158181818181816,125.39278451831305L53.41375,124.75664091627483L53.669318181818184,124.2281560341614L53.92488636363636,122.24178165085934L54.180454545454545,122.67553422795126L54.43602272727273,122.75510165883162L54.69159090909091,122.00880634594827L54.947159090909096,121.51910816293727L55.202727272727266,120.7977079993047L55.45829545454545,120.04359077812562L55.713863636363634,120.12391203610625L55.96943181818182,119.74739303318714L56.225,119.96055765329235L56.48056818181818,119.25637901970936L56.73613636363636,118.59131745224363L56.991704545454546,118.62790128123889L57.24727272727273,118.00677772768864L57.502840909090914,117.45998183339853L57.75840909090909,116.83744306916057L58.013977272727274,115.51498104326757L58.26954545454546,115.75974809130857L58.52511363636364,115.7750326825703L58.78068181818181,115.03354837047766L59.036249999999995,115.12359211892132L59.29181818181818,114.70623842506657L59.54738636363636,114.67874334599745L59.80295454545455,113.87700950837694L60.058522727272724,113.14940319627306L60.31409090909091,113.19217306743428L60.56965909090909,112.73093876861867L60.825227272727275,112.33923183766473L61.08079545454546,111.93479064502336L61.336363636363636,111.41352104325117L61.59193181818182,110.15064320186735L61.847500000000004,110.40799014965397L62.10306818181818,109.83100889278711L62.358636363636364,109.30702175631504L62.61420454545454,109.39470644494415L62.869772727272725,109.44932844703125L63.12534090909091,108.69934944853345L63.38090909090909,108.23413494566955L63.63647727272727,107.50844666087869L63.89204545454545,107.67872725226867L64.14761363636363,108.01048059432557L64.40318181818182,107.7276284796635L64.65875,107.21847080002411L64.91431818181817,106.76735324705213L65.16988636363637,105.55545611621176L65.42545454545454,105.23893724245717L65.68102272727273,103.97274257718469L65.93659090909091,103.97099090386943L66.19215909090909,102.77558304568534L66.44772727272728,102.33354483514708L66.70329545454545,102.57272933711675L66.95886363636365,102.76730693168538L67.21443181818182,101.42426807283364L67.47,100.00399401403209L67.72556818181818,99.64290411343856L67.98113636363637,98.93010757690185L68.23670454545454,99.1436222596197L68.49227272727272,98.32515963384793L68.74784090909091,97.1553323658568L69.00340909090909,96.52693485605158L69.25897727272728,95.97060112779164L69.51454545454546,95.50928448764456L69.77011363636363,95.69138549877414L70.02568181818182,95.34636992417052L70.28125,94.74655734194431L70.53681818181818,94.53813856871955L70.79238636363637,94.27157654068728L71.04795454545454,93.64914418622998L71.30352272727274,93.90326605197409L71.5590909090909,94.2490305205451L71.81465909090909,93.43364209588748L72.07022727272727,93.03620169866704L72.32579545454546,92.59432945674082L72.58136363636363,91.42676010341879L72.83693181818182,91.16620033535193L73.0925,90.89872780701822L73.34806818181819,90.77002744546444L73.60363636363637,89.7890750204634L73.85920454545456,88.70681863372556L74.11477272727272,88.7031332153864L74.3703409090909,88.0305008604344L74.62590909090909,87.52882873166824L74.88147727272727,87.44361195991185L75.13704545454546,87.12193916894412L75.39261363636363,87.05003682817438L75.64818181818183,87.2123792521904L75.90375,86.8117736367854L76.1593181818182,87.02364216856807L76.41488636363636,87.2339749505216L76.67045454545455,87.56171843322137L76.92602272727272,87.43092702792731L77.1815909090909,87.64659643284092L77.43715909090909,87.83651679534579L77.69272727272727,87.58499946084493L77.94829545454546,87.83703188105468L78.20386363636364,86.9668352130776L78.45943181818183,87.05768711015084L78.715,87.3598226556012L78.97056818181818,86.6819559999753L79.22613636363636,86.9645109887668L79.48170454545455,85.9406427720019L79.73727272727272,85.53486973247873L79.99284090909092,85.72271404063687L80.24840909090909,84.77348743852843L80.50397727272727,84.4131637027016L80.75954545454546,83.52364786022945L81.01511363636364,82.68775225085892L81.27068181818181,82.45281914919707L81.52624999999999,82.6104140313297L81.78181818181818,82.7661805808876L82.03738636363636,81.96904622786084L82.29295454545455,81.69858577269987L82.54852272727273,80.93008402469233L82.80409090909092,80.11608417117401L83.0596590909091,80.33201681907101L83.31522727272728,80.64413839444822L83.57079545454546,80.23702816241051L83.82636363636362,79.92569217560937L84.08193181818181,79.59657511645253L84.33749999999999,79.37398161425315L84.59306818181818,79.1021702352192L84.84863636363636,79.4152124896626L85.10420454545455,79.17004021174556L85.35977272727273,79.27127707083557L85.61534090909092,79.16419908489117L85.8709090909091,79.00642227108196L86.12647727272727,78.22774603356649L86.38204545454545,77.443112429337L86.63761363636364,76.72217533981235L86.89318181818182,75.99279411063189L87.14874999999999,76.28562545486017L87.40431818181818,76.47953693842989L87.65988636363636,76.34014391246126L87.91545454545455,75.82011921397948L88.17102272727273,75.99893768616053L88.42659090909092,75.66263243165821L88.68215909090908,75.55497270222658L88.93772727272727,75.75109520966173L89.19329545454545,75.88772711439248L89.44886363636364,75.46694152449773L89.70443181818182,75.54658133590341L89.96000000000001,75.74473078506433L90.21556818181818,75.94928501997383L90.47113636363638,75.24540123942997L90.72670454545455,75.1352131259443L90.98227272727271,75.0444628546029L91.2378409090909,75.22676617561031L91.49340909090908,75.36528409494697L91.74897727272727,75.16451279253641L92.00454545454545,75.36044587359252L92.26011363636364,75.32829177546668L92.51568181818182,74.78311823122547L92.77125000000001,75.04685057059592L93.02681818181819,75.28913389235314L93.28238636363638,74.60373991274929L93.53795454545454,74.03405078098436L93.79352272727272,74.35999982151341L94.0490909090909,74.12898914896289L94.30465909090908,73.99273945320945L94.56022727272727,73.53269114492609L94.81579545454545,72.8897245441443L95.07136363636364,72.17911461601526L95.32693181818182,71.56217636650352L95.58250000000001,71.44934629703323L95.83806818181817,70.8185848020637L96.09363636363636,70.16993117614774L96.34920454545454,70.06430396614148L96.60477272727273,69.87639406533455L96.86034090909091,69.7412558555878L97.11590909090908,69.26010923328649L97.37147727272728,69.22950214589878L97.62704545454545,68.66085168474424L97.88261363636364,68.48319919667998L98.13818181818182,68.38682222885326L98.39375,68.31186925782801L98.64931818181817,67.6401820121396L98.90488636363636,67.10355406314869L99.16045454545454,66.48266205385958L99.41602272727273,66.09610694728106L99.67159090909091,65.52214589705763L99.9271590909091,64.84544648216016L100.18272727272728,65.04399287350691L100.43829545454547,64.50162208118093L100.69386363636363,63.93568771354843L100.94943181818181,64.11270888154111L101.205,64.40301629527427L101.46056818181818,63.84646386786929L101.71613636363637,63.98918610344714L101.97170454545454,64.17279584445467L102.22727272727273,63.473902952459284L102.48284090909091,63.43300143789365L102.7384090909091,63.70938089065358L102.99397727272728,63.28247391628064L103.24954545454545,62.70954266499321L103.50511363636363,62.70898760916627L103.76068181818181,62.65999607457786L104.01625,62.25064194495609L104.27181818181818,62.12598112076189L104.52738636363637,62.086533454585194L104.78295454545454,62.02702559267291L105.03852272727273,61.886119217339285L105.29409090909091,61.42538193274687L105.54965909090909,60.89949536589843L105.80522727272727,61.08246565115073L106.06079545454546,60.63448921629184L106.31636363636363,60.596472906485545L106.57193181818182,60.13218480937849L106.8275,60.33712129193603L107.08306818181819,60.56176188446587L107.33863636363637,60.43734119213475L107.59420454545455,59.854893503306045L107.84977272727272,60.049982953571444L108.1053409090909,59.40394063646349L108.36090909090909,59.35816805533263L108.61647727272727,59.2954422253583L108.87204545454546,58.74697963797334L109.12761363636363,58.68127016758625L109.38318181818182,58.56561440891032L109.63875,58.81734364181693L109.89431818181819,59.05743620445324L110.14988636363637,58.96744490955952L110.40545454545453,58.94026792217025L110.66102272727272,59.06636842502705L110.9165909090909,59.285597501085945L111.17215909090909,59.50500875033805L111.42772727272727,59.389903859410424L111.68329545454546,59.615564040755956L111.93886363636364,59.140768490204366L112.19443181818183,59.068723681556065L112.45,59.00297975654979L112.70556818181818,58.955120637292154L112.96113636363636,58.981341961474044L113.21670454545455,59.15839319113299L113.47227272727272,58.63646289033797L113.72784090909092,58.856320889193725L113.98340909090909,58.8193931967284L114.23897727272727,59.03987509857015L114.49454545454546,58.622343758844494L114.75011363636364,58.59066390575896L115.00568181818183,58.05134305287474L115.26124999999999,57.968438720848695L115.51681818181818,58.20100040918747L115.77238636363636,58.4168880370425L116.02795454545455,58.660577908215345L116.28352272727273,58.5968852041549L116.53909090909092,58.07210954421865L116.7946590909091,58.393899699522365L117.05022727272728,57.910648763780245L117.30579545454546,58.074290863972195L117.56136363636362,57.65219288679546L117.81693181818181,57.322104490977836L118.07249999999999,57.52412413299285L118.32806818181818,57.1181004376072L118.58363636363636,57.31514258928097L118.83920454545455,57.232978688819344L119.09477272727273,57.40133516823043L119.35034090909092,56.909725596192274L119.6059090909091,57.17932783931924L119.86147727272729,57.133679403772916L120.11704545454545,57.34584529768685L120.37261363636362,56.930055350907494L120.62818181818182,57.12124211061422L120.88374999999999,56.994502171653L121.13931818181818,57.298364589236755L121.39488636363636,57.22653650369503L121.65045454545455,57.158690225470934L121.90602272727273,57.19399307619281L122.16159090909092,56.77525735515785L122.41715909090908,56.316355930070316L122.67272727272727,55.826094559173896L122.92829545454545,55.431031593981615L123.18386363636364,55.646916583471906L123.43943181818182,55.6274849421863L123.69500000000001,55.54168636566345L123.95056818181818,55.4385664540975L124.20613636363636,55.01793194250746L124.46170454545455,55.25841672225731L124.71727272727273,55.19337984275691L124.9728409090909,55.410822530998956L125.22840909090908,54.94037882040331L125.48397727272727,55.16120813156367L125.73954545454545,54.75411696593508L125.99511363636364,54.33207729215327L126.25068181818182,54.48682553927259L126.50625000000001,54.7304527225801L126.76181818181819,55.00844590590434L127.01738636363638,54.98219970316063L127.27295454545454,54.57679202670812L127.52852272727272,54.179349874238085L127.7840909090909,54.33862249127898L128.03965909090908,54.56876675315118L128.29522727272726,54.48318306650158L128.55079545454547,54.09449562874073L128.80636363636364,54.02931625734287L129.06193181818182,53.63937643290265L129.3175,53.25979004051611L129.5730681818182,52.80517921385825L129.82863636363635,52.40064892309351L130.08420454545455,52.609230632699976L130.33977272727273,52.53055574814168L130.5953409090909,52.1611702082632L130.85090909090908,51.728857766221154L131.10647727272726,51.99857900378437L131.36204545454547,52.174075404134925L131.61761363636364,51.75012291479561L131.87318181818182,51.33942605160901L132.12875,50.96756257827312L132.38431818181817,50.52996907817304L132.63988636363635,50.06765069278329L132.89545454545456,50.022040285085325L133.15102272727273,50.20229519351331L133.4065909090909,49.789923784995366L133.66215909090909,49.46486092605747L133.9177272727273,49.45170131226929L134.17329545454547,49.703564610391595L134.42886363636364,49.68708595694956L134.68443181818182,49.63819645376981L134.94,49.27029597823733L135.19556818181817,49.23351381247372L135.45113636363635,48.751885749431096L135.70670454545456,48.88011000348982L135.96227272727273,48.503006879856144L136.2178409090909,48.46303121995646L136.4734090909091,48.41975125722797L136.7289772727273,48.168753042533496L136.98454545454544,47.811476379215975L137.24011363636362,48.05782293170137L137.49568181818182,48.0690560545776L137.75125,48.25708432967204L138.00681818181818,47.90507750354442L138.26238636363635,47.80505845629608L138.51795454545456,47.506030162651456L138.77352272727273,47.0949378979046L139.0290909090909,47.091153419737395L139.2846590909091,46.754819314436986L139.54022727272726,46.49417280130908L139.79579545454544,46.488840194712594L140.05136363636365,46.5561059336564L140.30693181818182,46.853025364593094L140.5625,47.062714215986944L140.81806818181818,46.650817374424435L141.07363636363635,46.66451824174112L141.32920454545453,46.83746490567668L141.58477272727274,46.548809051312645L141.8403409090909,46.157108520058216L142.0959090909091,46.38011571620049L142.35147727272727,46.15783035581035L142.60704545454547,46.38298322414181L142.86261363636365,46.1581657169788L143.1181818181818,46.141632026139746L143.37375,45.762107085313914L143.62931818181818,45.7448508405258L143.88488636363638,45.563045228891184L144.14045454545453,45.74613535310573L144.39602272727274,45.69654849507421L144.6515909090909,45.882365356412635L144.9071590909091,45.855059151526376L145.16272727272727,45.51169233897872L145.41829545454544,45.315089489409274L145.67386363636365,45.27411459068108L145.9294318181818,45.46836953426504L146.185,45.191175800649745L146.44056818181818,45.246197510142906L146.69613636363638,45.14436361751345L146.95170454545453,44.81284904024736L147.20727272727274,45.00866752609912L147.46284090909091,44.93367702822093L147.71840909090912,44.59967012721367L147.97397727272727,44.77805338737724L148.22954545454544,44.426429697331514L148.48511363636365,44.0786088448279L148.7406818181818,44.30517805188509L148.99625,44.26506131266595L149.25181818181818,44.54598339548161L149.50738636363639,44.29152826134873L149.76295454545453,44.53709608758234L150.01852272727274,44.54425955529169L150.27409090909092,44.210261338760176L150.52965909090906,44.401038170109246L150.78522727272727,44.58921142863869L151.04079545454545,44.77567299886903L151.29636363636365,44.474091170010695L151.5519318181818,44.51409955542172L151.8075,44.76018999070715L152.06306818181818,44.52396321751465L152.3186363636364,44.5623500406017L152.57420454545453,44.403583825554335L152.8297727272727,44.05066889826537L153.08534090909092,44.32405931236033L153.3409090909091,44.50048777960703L153.59647727272727,44.19164387010943L153.85204545454545,43.8744792245908L154.10761363636365,43.73371943700599L154.3631818181818,43.53828623927106L154.61875,43.1813195985946L154.87431818181818,42.97420633663168L155.12988636363636,43.1610791200994L155.38545454545454,43.2434981512468L155.6410227272727,43.44955699086728L155.89659090909092,43.07674327828289L156.1521590909091,42.71566471068189L156.40772727272727,42.36461116054943L156.66329545454545,42.45172597457119L156.91886363636365,42.1072418252227L157.17443181818183,42.29012979680286L157.43,42.33075264704945L157.68556818181818,41.99203812625126L157.94113636363636,42.025140549598234L158.19670454545454,41.65076603433144L158.4522727272727,41.844254692044586L158.70784090909092,41.86526877807731L158.9634090909091,41.508230501664286L159.21897727272727,41.43494682841691L159.47454545454545,41.13448458770475L159.73011363636365,41.39721461457469L159.98568181818183,41.39935110382112L160.24124999999998,41.660549506506044L160.49681818181818,41.84096084272301L160.75238636363636,41.55859836524397L161.00795454545454,41.71403564518377L161.26352272727271,41.91806019094395L161.51909090909092,41.63523356260404L161.7746590909091,41.64901968839129L162.03022727272727,41.362045726805235L162.28579545454545,41.56222359836565L162.54136363636363,41.50153762992804L162.79693181818183,41.733959688335574L163.05249999999998,41.88173594045699L163.3080681818182,41.59064088053029L163.56363636363636,41.23602675075227L163.81920454545457,41.42635366717067L164.07477272727272,41.39269915558549L164.33034090909092,41.15283220925926L164.5859090909091,40.819341584385256L164.84147727272725,40.52544388710018L165.09704545454545,40.46746661158875L165.35261363636363,40.677552900303226L165.60818181818183,40.37086432895401L165.86374999999998,40.08093045720045L166.1193181818182,40.30587852724122L166.37488636363636,40.48152811577063L166.63045454545457,40.43632849567376L166.88602272727272,40.678000568442L167.14159090909092,40.914480817459776L167.3971590909091,40.94632923562094L167.65272727272725,40.65965627928995L167.90829545454545,40.31565414036518L168.16386363636363,40.29590462875586L168.41943181818183,39.994360191725065L168.67499999999998,40.184237661431496L168.9305681818182,39.86688156311425L169.18613636363636,39.59775923633899L169.44170454545457,39.81562326685855L169.69727272727272,39.605649398341995L169.9528409090909,39.61752886580922L170.2084090909091,39.31111005037829L170.46397727272725,39.303450422362744L170.71954545454545,39.26739931601821L170.97511363636363,38.95108068924719L171.23068181818184,38.67595096392884L171.48624999999998,38.34691107380823L171.7418181818182,38.49482819594442L171.99738636363637,38.21656912348942L172.25295454545454,38.40856637511223L172.50852272727272,38.3709672822562L172.7640909090909,38.09973079922014L173.0196590909091,38.28217896234875L173.27522727272728,38.43989179848825L173.53079545454545,38.19361169336173L173.78636363636363,38.407137416831915L174.04193181818184,38.40073602228486L174.29749999999999,38.391570282949544L174.55306818181816,38.184608796736825L174.80863636363637,37.96425980861105L175.06420454545454,37.71091380844251L175.31977272727272,37.547989743205676L175.5753409090909,37.20280281574992L175.8309090909091,37.39679841819958L176.08647727272728,37.080017697176686L176.34204545454546,37.288099884302426L176.59761363636363,37.26895524983715L176.85318181818184,36.978376376345494L177.10875000000001,36.66937054503725L177.36431818181816,36.42242085049429L177.61988636363637,36.393799828297944L177.87545454545455,36.16435548311938L178.13102272727272,36.352371290392625L178.3865909090909,36.364488162856475L178.6421590909091,36.07910287390959L178.89772727272728,36.32552531873503L179.15329545454546,36.48893147150511L179.40886363636363,36.20644750968822L179.6644318181818,36.24072871073244L179.92000000000002,36.474784379022395L180.17556818181816,36.44618124072602L180.43113636363637,36.6718861714283L180.68670454545455,36.52380805758318L180.94227272727275,36.2494287306269L181.1978409090909,36.136127129760155L181.4534090909091,35.819598708444346L181.70897727272728,36.009608829879454L181.96454545454543,36.05211466421872L182.22011363636364,35.78485177065281L182.4756818181818,35.766229658084086L182.73125000000002,35.926310297548696L182.98681818181817,36.08977630352601L183.24238636363637,36.27336133030414L183.49795454545455,36.33895210290342L183.75352272727275,35.99437466133497L184.0090909090909,36.19443872145612L184.26465909090908,36.160036543336304L184.52022727272728,36.38788557451346L184.77579545454543,36.158141167532875L185.03136363636364,36.16432094780137L185.2869318181818,36.371330750333954L185.54250000000002,36.11225800236386L185.79806818181817,36.14954122600514L186.05363636363637,36.38009761752713L186.30920454545455,36.23965053532996L186.56477272727275,36.436515914999745L186.8203409090909,36.455386275821695L187.07590909090908,36.16150801982428L187.33147727272728,36.34978080582209L187.58704545454543,36.32694203023499L187.84261363636364,36.07470695935842L188.0981818181818,36.093328956011106L188.35375000000002,36.14079764263275L188.60931818181817,36.108709439897524L188.86488636363637,35.86954352680729L189.12045454545455,35.5854650706645L189.37602272727273,35.595311479465494L189.6315909090909,35.62133926683822L189.88715909090908,35.751882424564315L190.14272727272729,35.50947598229095L190.39829545454546,35.698476352722935L190.65386363636364,35.68954868731416L190.90943181818182,35.845233834140686L191.16500000000002,35.63291863659876L191.42056818181817,35.32435056903492L191.67613636363635,35.22085143065715L191.93170454545455,34.98125594242936L192.18727272727273,34.97201218517117L192.4428409090909,35.16355727866983L192.69840909090908,34.87893828471192L192.9539772727273,34.57242997710392L193.20954545454546,34.77200085592685L193.46511363636364,34.57700742802314L193.72068181818182,34.61386408823083L193.97625,34.30344196189125L194.23181818181817,34.5033176877771L194.48738636363635,34.683779343052436L194.74295454545455,34.8745160456088L194.99852272727273,35.08940519572744L195.2540909090909,35.29941663709147L195.50965909090908,35.03286833031845L195.7652272727273,35.00586856861659L196.02079545454546,35.147179234204L196.27636363636364,35.30052804419523L196.53193181818182,35.52911418982234L196.7875,35.24995329132017L197.0430681818182,35.41330947775245L197.29863636363635,35.44799026848611L197.55420454545455,35.64979327574525L197.80977272727273,35.64551479576957L198.0653409090909,35.808981228181096L198.32090909090908,35.54364117157712L198.5764772727273,35.39247821834863L198.83204545454547,35.2100441655335L199.0876136363636,34.93659541632826L199.34318181818182,34.61471516507183L199.59875,34.30214735758565L199.8543181818182,34.461734037944126L200.10988636363635,34.361510529901096L200.36545454545455,34.41802884884174L200.62102272727273,34.641075705026935L200.87659090909094,34.6902125322205L201.13215909090908,34.47647889794209L201.38772727272726,34.695460934231306L201.64329545454547,34.84142959313081L201.89886363636361,34.80188408753176L202.15443181818182,34.94672924943464L202.41,35.12425170144354L202.6655681818182,34.92553286651156L202.92113636363635,34.77512062182217L203.17670454545456,34.475819743331016L203.43227272727273,34.5324090111653L203.68784090909088,34.49358027771177L203.94340909090909,34.71800247959831L204.19897727272726,34.830467840481504L204.45454545454547,34.86295600009109L204.71011363636362,34.85200489892864L204.96568181818182,35.01146225807278L205.22125,34.80370062624448L205.4768181818182,34.65485782456162L205.73238636363635,34.804922217296365L205.98795454545456,34.96345264462235L206.24352272727273,34.96149602803348L206.4990909090909,34.98298778155285L206.7546590909091,35.18146714585092L207.01022727272726,35.36484923153802L207.26579545454547,35.56528273755697L207.52136363636362,35.6668218230636L207.77693181818182,35.53836917067977L208.0325,35.513858810764106L208.2880681818182,35.277120321940714L208.54363636363635,35.45943176504662L208.79920454545453,35.43760539814366L209.05477272727273,35.549312256292666L209.3103409090909,35.326217631802905L209.5659090909091,35.46979358918665L209.82147727272726,35.531334179102146L210.07704545454547,35.747088194630265L210.33261363636365,35.97383182733398L210.58818181818182,36.14778902831415L210.84375,36.31019736320184L211.09931818181818,36.420556384775466L211.35488636363635,36.19366656207788L211.61045454545453,36.207165975084564L211.86602272727274,36.22203711841499L212.1215909090909,36.21880016510818L212.3771590909091,36.38889682783852L212.63272727272727,36.16627911173953L212.88829545454547,35.934835730611866L213.14386363636365,36.11144601143283L213.3994318181818,36.29764738242508L213.655,36.326360156649685L213.91056818181818,36.53733718867187L214.16613636363638,36.2509872263374L214.42170454545453,35.99936844065306L214.67727272727274,35.74086679458887L214.9328409090909,35.48259618094184L215.1884090909091,35.35153973643219L215.44397727272727,35.14199826467035L215.69954545454544,34.961628719835204L215.95511363636365,34.73485230342024L216.2106818181818,34.48561532823004L216.46625,34.444153650356526L216.72181818181818,34.5782503904403L216.97738636363638,34.58642022083376L217.23295454545453,34.78671740523288L217.48852272727274,34.92837272392853L217.74409090909091,34.88752555999653L217.99965909090912,34.656448484124155L218.25522727272727,34.65694555210493L218.51079545454544,34.46087144262677L218.76636363636365,34.607703439975865L219.0219318181818,34.60835822323642L219.2775,34.781712343522884L219.53306818181818,34.75368839659541L219.78863636363639,34.78957568075339L220.04420454545453,34.74763819267699L220.29977272727274,34.63037349606225L220.55534090909092,34.52360475326279L220.81090909090906,34.52432764964186L221.06647727272727,34.53216404083494L221.32204545454545,34.53353288528467L221.57761363636365,34.31835367976444L221.8331818181818,34.30704057904879L222.08875,34.08887987385171L222.34431818181818,34.08949144528623L222.5998863636364,33.820625516893756L222.85545454545453,33.988934248352706L223.1110227272727,33.95212367389934L223.36659090909092,33.772940172477576L223.6221590909091,33.95408524578863L223.87772727272727,33.76407267234913L224.13329545454545,33.89195692523123L224.38886363636365,33.89998358744947L224.6444318181818,34.05344534329899L224.9,33.825687525538996L225.15556818181818,33.63202150910624L225.41113636363636,33.77647530125711L225.66670454545454,33.54581127888386L225.9222727272727,33.25824711045374L226.17784090909092,33.21866120690771L226.4334090909091,33.37989541568888L226.68897727272727,33.19711477779779L226.94454545454545,33.36631234942024L227.20011363636365,33.35563695268658L227.45568181818183,33.1876561241225L227.71125,33.210610270475655L227.96681818181818,33.20021383761397L228.22238636363636,33.270743962279425L228.47795454545454,33.42420717372613L228.7335227272727,33.22048264131993L228.98909090909092,33.38370713984767L229.2446590909091,33.415840167721484L229.50022727272727,33.55379220738055L229.75579545454545,33.40113789635106L230.01136363636365,33.401987176140494L230.26693181818183,33.56320931607374L230.52249999999998,33.71721443886685L230.77806818181818,33.464054018117594L231.03363636363636,33.61173968189158L231.28920454545454,33.789390680238824L231.54477272727271,33.98188648705383L231.80034090909092,33.737383658872886L232.0559090909091,33.86310536837672L232.31147727272727,33.9843064116902L232.56704545454545,33.762685032282405L232.82261363636363,33.73827653184179L233.07818181818183,33.52102040200694L233.33374999999998,33.66374829205327L233.5893181818182,33.50421744816188L233.84488636363636,33.308667859744844L234.10045454545457,33.244836623900056L234.35602272727272,33.026116436123374L234.61159090909092,33.00640487437471L234.8671590909091,32.999700813581256L235.12272727272725,33.022100919237886L235.37829545454545,33.17864618564394L235.63386363636363,33.316769801372715L235.88943181818183,33.45700519193261L236.14499999999998,33.582854192865085L236.4005681818182,33.41821595776344L236.65613636363636,33.59425016250901L236.91170454545457,33.55980496141518L237.16727272727272,33.73292384328704L237.42284090909092,33.697055079923274L237.6784090909091,33.872313777258825L237.93397727272725,34.0098705268266L238.18954545454545,33.995722654579595L238.44511363636363,33.855509502412076L238.70068181818183,33.63088148999887L238.95624999999998,33.43619540366106L239.2118181818182,33.55830231353005L239.46738636363636,33.482092012701315L239.72295454545457,33.63419105215078L239.97852272727272,33.83215935294845L240.2340909090909,33.80802825283729L240.4896590909091,33.57067330428839L240.74522727272725,33.32630310157322L241.00079545454545,33.083947742730885L241.25636363636363,33.23163383061879L241.51193181818184,33.05392977381186L241.76749999999998,33.16768133699503L242.0230681818182,33.1900841574402L242.27863636363637,33.1715948369598L242.53420454545454,32.92148012632552L242.78977272727272,32.690971995227784L243.0453409090909,32.71614994711686L243.3009090909091,32.51464891082972L243.55647727272728,32.64959923817807L243.81204545454545,32.81589889022371L244.06761363636363,32.61105412772585L244.32318181818184,32.38053379782096L244.57874999999999,32.197394779440714L244.83431818181816,32.1988538679455L245.08988636363637,32.35864663712857L245.34545454545454,32.21542046364942L245.60102272727272,32.20162814351886L245.8565909090909,32.08861202485366L246.1121590909091,32.03248939844437L246.36772727272728,32.19358370394849L246.62329545454546,32.22193360895619L246.87886363636363,32.21703430904367L247.13443181818184,32.202776345465935L247.39000000000001,32.36194344533416L247.64556818181816,32.35516367441909L247.90113636363637,32.47063774396511L248.15670454545455,32.634214814525166L248.41227272727272,32.640676628346625L248.6678409090909,32.69697742468506L248.9234090909091,32.608374969620684L249.17897727272728,32.409532570156074L249.43454545454546,32.39620559335904L249.69011363636363,32.48889282745395L249.9456818181818,32.38699657949067L250.20125000000002,32.525900197406685L250.45681818181816,32.347154156016785L250.71238636363637,32.486620204277926L250.96795454545455,32.480801878807426L251.22352272727275,32.64411574548109L251.4790909090909,32.411630807900394L251.7346590909091,32.21202440710883L251.99022727272728,32.22476750477327L252.24579545454543,32.049402162426674L252.50136363636364,31.837655058315477L252.7569318181818,32.00529042591597L253.01250000000002,32.1306051784419L253.26806818181817,31.953600291701378L253.52363636363637,32.082953584922336L253.77920454545455,31.861552185355777L254.03477272727275,31.853328917223422L254.2903409090909,32.04177998532734L254.54590909090908,31.85649365006975L254.80147727272728,31.856777539066428L255.05704545454543,31.606579156497077L255.31261363636364,31.62520361823016L255.5681818181818,31.40996444253713L255.82375000000002,31.5423316363339L256.07931818181817,31.352031677909338L256.3348863636364,31.34616096236553L256.5904545454545,31.30819443945728L256.8460227272727,31.131179097597027L257.10159090909093,31.14795979218738L257.3571590909091,31.29073697547946L257.6127272727273,31.0562626328782L257.86829545454543,31.23101028992943L258.12386363636364,31.033952378143283L258.3794318181818,31.040304890213235L258.635,31.077216470850942L258.8905681818182,31.063289281500943L259.1461363636364,31.233317763022683L259.40170454545455,31.221627234108837L259.6572727272727,31.028539865058605L259.9128409090909,31.016675548248486L260.1684090909091,31.01982461684159L260.42397727272726,30.796212062382722L260.67954545454546,30.794212685370724L260.93511363636367,30.56812058159366L261.1906818181818,30.331222228999252L261.44625,30.34314498126753L261.70181818181817,30.37380357986578L261.9573863636364,30.181583834364346L262.2129545454545,30.327388692888775L262.4685227272727,30.114592359623288L262.72409090909093,30.25341844071221L262.9796590909091,30.399521768208018L263.2352272727273,30.577653625145473L263.49079545454543,30.570010726497884L263.74636363636364,30.741507557640574L264.00193181818184,30.643886058711075" style="fill: none;" fill="none"></path></g></g></g></g><g opacity="0.2"><g><g><g><path stroke="rgb(255, 112, 67)" stroke-width="2px" d="M25.812386363636364,82.76947684151787L26.067954545454544,223.65550728934153L26.323522727272728,140.65514242989676L26.579090909090908,92.17832754952568L26.834659090909092,78.55657111031668L27.090227272727272,161.85326450892856L27.345795454545456,255.05635489327568L27.601363636363633,124.37139862060548L27.856931818181817,248.2715606689453L28.1125,137.3241925048828L28.36806818181818,55.780057689121776L28.623636363636365,173.26284118652345L28.879204545454545,225.90461478097097L29.13477272727273,86.68222660609655L29.390340909090906,176.16125322614397L29.64590909090909,267.00309866768976L29.901477272727274,73.81617102486747L30.157045454545454,108.68275804792133L30.412613636363638,91.70564797537668L30.668181818181818,236.72959821428572L30.923750000000002,65.53394982474191L31.179318181818182,108.7870554460798L31.434886363636362,76.58372517177035L31.690454545454546,99.50112997872489L31.946022727272727,152.59014927455357L32.20159090909091,181.52340192522323L32.45715909090909,134.16661115373884L32.71272727272727,178.00196803501674L33.47943181818182,328.13384399414065L33.735,156.21282479422433L33.99056818181818,70.98193784441267L34.24613636363636,147.34905840192522L34.501704545454544,275.5697455705915L34.75727272727273,36.20896267482212L35.01284090909091,181.9969380405971L35.26840909090909,227.49483372279576L35.52397727272727,154.5233705357143L35.77954545454545,190.80374058314732L36.03511363636363,82.69446003505162L36.29068181818182,193.0634815325056L36.54625,126.17797524588448L36.801818181818184,61.11225638253349L37.05738636363636,64.96162595476423L37.312954545454545,76.84412913731165L37.56852272727273,365.9269738769531L37.82409090909091,320.4542960030692L38.0796590909091,170.19542044503348L38.33522727272727,65.96647227696009L38.59079545454545,71.73767342703682L38.846363636363634,227.40877833775113L39.10193181818182,79.18974027361187L39.3575,247.43732038225446L39.61306818181818,94.39845925467355L39.86863636363636,169.52807451520647L40.124204545454546,1.0711048017229245L40.37977272727273,83.5620938546317L40.63534090909091,-7.663663395472952L40.89090909090909,128.93060551234655L41.146477272727275,87.20320044381278L41.40204545454546,66.8537332371303L41.65761363636364,116.22755898611886L41.91318181818181,152.28901715959822L42.168749999999996,185.6959769112723L42.42431818181818,176.2028919328962L42.67988636363636,149.6424591064453L42.93545454545455,104.29928100585937L43.191022727272724,108.6356791469029L43.44659090909091,173.58395926339287L43.70215909090909,177.93355276925223L43.957727272727276,138.5170612008231L44.21329545454546,188.87513384137836L44.468863636363636,129.0858015223912L44.72443181818182,135.99889173235212L44.980000000000004,165.28455322265626L45.23556818181819,-27.579547119140642L45.49113636363636,81.88004366193498L45.74670454545454,108.34959437779018L46.002272727272725,36.135058021545404L46.25784090909091,154.03350612095423L46.51340909090909,45.22562746320452L46.76897727272727,-118.00338500976562L47.02454545454545,142.77727347237723L47.28011363636364,123.29337589808873L47.53568181818182,132.96749973842077L47.791250000000005,57.56212836129325L48.04681818181818,147.37485495431082L48.302386363636366,161.67485700334822L48.55795454545454,8.23735888889857L48.813522727272726,142.4610014125279L49.06909090909091,23.43659225463867L49.32465909090909,176.4529865373884L49.58022727272727,133.433280683245L49.835795454545455,-81.73134887695312L50.09136363636364,131.9218944004604L50.346931818181815,48.181157684326166L50.6025,52.79048960004533L50.85806818181818,55.85505327497211L51.11363636363637,63.972421155657074L51.36920454545455,151.0818496268136L51.62477272727273,45.16649718148369L51.880340909090904,62.16746501377652L52.13590909090909,75.73919867379324L52.39147727272727,28.274867125919883L52.647045454545456,142.44194144112723L52.90261363636363,65.86104439871653L53.158181818181816,165.36312351771764L53.41375,59.667390943254745L53.669318181818184,69.68050061907087L53.92488636363636,-84.56154628208708L54.180454545454545,168.22208836146763L54.43602272727273,131.18127947126118L54.69159090909091,42.3097392817906L54.947159090909096,68.78588960920061L55.202727272727266,42.4706339917864L55.45829545454545,37.49273084368025L55.713863636363634,128.98787802559988L55.96943181818182,77.8615149143764L56.225,143.8633060128348L56.48056818181818,39.670335469927124L56.73613636363636,42.83704072134836L56.991704545454546,122.827386605399L57.24727272727273,46.15833333696639L57.502840909090914,53.72638821193149L57.75840909090909,43.72603598458426L58.013977272727274,-40.9617536708287L58.26954545454546,144.9367064993722L58.52511363636364,117.61044865199497L58.78068181818181,25.34235917061568L59.036249999999995,126.09449720110212L59.29181818181818,63.48989521571569L59.54738636363636,111.28053955078126L59.80295454545455,14.086345171247217L60.058522727272724,21.948971373694263L60.31409090909091,118.59044756208147L60.56965909090909,54.11288314819336L60.825227272727275,62.215844159807475L61.08079545454546,59.82962448120118L61.336363636363636,43.80346808297293L61.59193181818182,-54.745786089215954L61.847500000000004,144.23377166748048L62.10306818181818,33.49180556161062L62.358636363636364,39.52522600446429L62.61420454545454,121.14800249372209L62.869772727272725,116.818132585798L63.12534090909091,6.875064795357844L63.38090909090909,44.670600324358276L63.63647727272727,7.729854354858389L63.89204545454545,131.23817387172153L64.14761363636363,154.19627210344586L64.40318181818182,68.10654052734375L64.65875,35.45984117235457L64.91431818181817,42.8015772138323L65.16988636363637,-67.3231679861886L65.42545454545454,59.816078011649L65.68102272727273,-78.81901611328126L65.93659090909091,103.71661690848214L66.19215909090909,-71.83943206787109L66.44772727272728,37.38733479636056L66.70329545454545,137.9185780988421L66.95886363636365,131.68693202427454L67.21443181818182,-99.33062425885879L67.47,-113.50242292131696L67.72556818181818,45.054672252110095L67.98113636363637,-9.43215480259488L68.23670454545454,131.78384464808872L68.49227272727272,-27.48663940429688L69.00340909090909,-1.1303990609305004L69.25897727272728,9.04315969194684L69.51454545454546,23.039539338520598L69.77011363636363,124.45154309953963L70.02568181818182,40.56608949933735L70.28125,-0.9934141976492867L70.53681818181818,61.09612485613141L70.79238636363637,51.276612788609086L71.04795454545454,-7.267127249581478L71.30352272727274,135.3172469656808L71.5590909090909,150.8869826398577L71.81465909090909,-40.81207502092636L72.07022727272727,27.26992506980895L72.32579545454546,19.107400924137664L72.58136363636363,-103.72169442313054L72.83693181818182,47.39928794860839L73.0925,45.748383832659044L73.34806818181819,68.93808772495815L73.60363636363637,-77.42724465506416L73.85920454545456,-96.67479086739678L74.11477272727272,88.0688009425572L74.3703409090909,-28.29881410871232L74.62590909090909,0.3520538766043444L74.88147727272727,72.56496492658341L75.13704545454546,30.693441974094924L75.39261363636363,74.37756434849331L75.64818181818183,115.95808803013394L75.90375,15.547918951851983L76.1593181818182,124.88696698869978L76.41488636363636,124.99537732805524L76.67045454545455,146.67063916887557L76.92602272727272,63.73547175816128L77.1815909090909,126.89576450892858L77.43715909090909,122.55484444754464L77.69272727272727,41.401170894077836L77.94829545454546,134.32094290597098L78.20386363636364,-74.23779379708427L78.45943181818183,103.96200439453125L78.715,143.8221534511021L78.97056818181818,-40.546570390973784L79.22613636363636,140.22638567243303L79.48170454545455,-107.88929992675781L79.73727272727272,8.38885093688964L79.99284090909092,121.58782483782088L80.24840909090909,-97.22937430245537L80.50397727272727,15.034516051156174L80.75954545454546,-88.46581551688058L81.01511363636364,-79.60758191789898L81.27068181818181,36.649730300903315L81.52624999999999,113.46218091692242L81.78181818181818,113.38513850620814L82.03738636363636,-75.36292628696987L82.29295454545455,28.100465976170142L82.54852272727273,-71.98210405622208L82.80409090909092,-82.50028368268698L83.0596590909091,123.64242030552455L83.31522727272728,143.4967140851702L83.57079545454546,-2.0683348519461617L83.82636363636362,16.734899891444627L84.08193181818181,12.534831668308811L84.33749999999999,33.840739043099546L84.59306818181818,23.28508742604936L84.84863636363636,143.9475942993164L85.10420454545455,28.434390935897824L85.35977272727273,100.30129381452288L85.61534090909092,56.83607270377021L85.8709090909091,45.98175080435615L86.12647727272727,-85.37389460972378L86.89318181818182,-78.9763496180943L87.14874999999999,138.73282470703126L87.40431818181818,117.98413212367467L87.65988636363636,46.39519978114535L87.91545454545455,-36.30137074061804L88.17102272727273,114.69371743338449L88.42659090909092,2.6258718109130825L88.68215909090908,52.08990639822824L88.93772727272727,118.65032056535992L89.19329545454545,105.88077248709543L89.44886363636364,-17.230704149518687L89.70443181818182,93.15297886439733L89.96000000000001,119.70483084542411L90.21556818181818,121.48927629743304L90.47113636363638,-82.00700081961497L90.72670454545455,50.43298141479491L90.98227272727271,54.629537625994004L91.2378409090909,116.37831795828683L91.49340909090908,106.74021514892578L91.74897727272727,29.53381585529874L92.00454545454545,120.04273250034876L92.26011363636364,67.97080189296177L92.51568181818182,-50.38319013323101L92.77125000000001,135.800035269601L93.02681818181819,131.28756774902342L93.28238636363638,-84.33622192382813L93.53795454545454,-58.51145769391741L93.79352272727272,150.44602595738002L94.0490909090909,20.02749596459526L94.30465909090908,41.97956771850585L94.56022727272727,-34.91156315394812L95.32693181818182,-75.27601436070034L95.58250000000001,44.50866773332868L95.83806818181817,-80.26921757289341L96.09363636363636,-85.69624734061108L96.34920454545454,44.60280624389648L96.60477272727273,24.438181754861546L96.86034090909091,36.961361797877714L97.11590909090908,-47.81351244245255L97.37147727272728,61.75899130684988L97.62704545454545,-70.56339399065291L97.88261363636364,24.854075593778077L98.13818181818182,44.6452899169922L98.39375,49.791516919817255L98.64931818181817,-98.8340618460519L99.9271590909091,-105.40749101911274L100.18272727272728,115.14529985700335L100.43829545454547,-72.76549203055245L100.69386363636363,-79.7172037615095L100.94943181818181,109.17845620291574L101.205,138.52509416852678L101.46056818181818,-78.66790989467077L101.71613636363637,100.64158761160714L101.97170454545454,111.46176361083984L102.22727272727273,-117.04521632603235L102.48284090909091,52.838131811959414L102.7384090909091,135.50547768729075L102.99397727272728,-47.93228615897044L103.24954545454545,-86.96952287946431L103.50511363636363,62.56356903076171L103.76068181818181,49.788640561785016L104.01625,-45.59877463204518L104.27181818181818,29.190849948610577L104.52738636363637,51.6355556488037L104.78295454545454,46.21776263645717L105.03852272727273,24.348642752511154L105.29409090909091,-61.65262586321151L105.54965909090909,-79.96689710344589L105.80522727272727,110.2275031389509L106.06079545454546,-60.01727260044643L106.31636363636363,50.32994760785785L106.57193181818182,-65.58995295933315L106.8275,115.98003400530135L107.08306818181819,121.7180191040039L107.33863636363637,26.47457132066998L107.59420454545455,-99.55710610525949L107.84977272727272,113.5861478969029L108.1053409090909,-118.35016845703126L108.36090909090909,46.731023744855605L108.61647727272727,41.946097019740506L108.87204545454546,-93.34857121058872L109.12761363636363,40.41178861345563L109.38318181818182,26.325971546173093L109.63875,129.16948019845145L109.89431818181819,126.33016178676061L110.14988636363637,33.687651590619765L110.40545454545453,51.28636269705635L110.66102272727272,94.67074676513671L110.9165909090909,121.3418663242885L111.17215909090909,121.76992858886719L111.42772727272727,26.642905303410117L111.68329545454546,123.9764482334682L111.93886363636364,-76.61529758998327L112.19443181818183,38.41791593824115L112.45,40.11141368865967L112.70556818181818,45.16870798383442L112.96113636363636,66.55336120605469L113.21670454545455,110.41181383405413L113.47227272727272,-92.8240979003906L113.72784090909092,122.81342729840961L113.98340909090909,48.050909402029845L114.23897727272727,123.49056557791573L114.49454545454546,-63.7243830217634L114.75011363636364,49.28533963884627L115.00568181818183,-100.74375523158483L115.26124999999999,33.50006520407541L115.51681818181818,127.00291704450333L115.77238636363636,122.43769121442523L116.02795454545455,131.09723039899555L116.28352272727273,39.61957479204452L116.53909090909092,-98.65326219831195L116.7946590909091,154.72258196149554L117.05022727272728,-87.08982448032924L117.30579545454546,107.2898291015625L117.56136363636362,-69.58895874023438L117.81693181818181,-42.41307403564454L118.07249999999999,118.70450644356863L118.32806818181818,-66.1262866646903L118.58363636363636,117.26233023507254L118.83920454545455,32.178731239863794L119.09477272727273,108.85514661516461L119.35034090909092,-93.67891832624167L119.6059090909091,139.94997750418526L119.86147727272729,43.08755395071847L120.11704545454545,122.77643397739955L120.37261363636362,-71.58402073451452L120.62818181818182,116.34593915666852L120.88374999999999,17.64640540531704L121.13931818181818,151.845706917899L121.39488636363636,34.82769059862409L121.65045454545455,35.95490849631173L121.90602272727273,68.25131528581892L122.16159090909092,-74.6655010986328L122.92829545454545,-69.39003282819473L123.18386363636364,124.00374180385045L123.43943181818182,49.4614803968157L123.69500000000001,28.25778838838849L123.95056818181818,22.576269178390504L124.20613636363636,-79.31621900285995L124.46170454545455,132.22325801304407L124.71727272727273,34.33479452950613L124.9728409090909,125.29638597760882L125.22840909090908,-96.57788596017019L125.48397727272727,126.43434343610491L125.73954545454545,-76.91072714669363L125.99511363636364,-82.45265690394808L126.25068181818182,104.7457859148298L126.50625000000001,134.01967189243862L126.76181818181819,145.66942735944474L127.01738636363638,46.404953547886436L127.27295454545454,-78.1827525983538L127.52852272727272,-76.23860464913503L127.7840909090909,106.70970376150949L128.03965909090908,130.3976831490653L128.29522727272726,26.227404076031263L128.55079545454547,-74.49210937500001L128.80636363636364,32.42295303889685L129.06193181818182,-75.88238381522041L129.82863636363635,-82.77592019217354L130.08420454545455,122.44691253662108L130.33977272727273,26.136243263993947L130.5953409090909,-72.00755336216517L130.85090909090908,-93.87926409040176L131.10647727272726,143.02259922572546L131.36204545454547,111.5157179914202L131.61761363636364,-91.88363106863841L132.63988636363635,-107.7834129115513L132.89545454545456,34.41911946977888L133.15102272727273,111.98433092389789L133.4065909090909,-91.82023158482144L133.66215909090909,-62.376264299665166L133.9177272727273,44.915385916573655L134.17329545454547,136.68939514160155L134.42886363636364,43.98509533473424L134.68443181818182,32.6893875176566L134.94,-78.51189592633929L135.19556818181817,36.43406228746687L135.45113636363635,-119.15851187569751L135.70670454545456,93.66643288748605L135.96227272727273,-83.45704023088729L136.2178409090909,34.44836437225342L136.4734090909091,33.21859833036149L136.7289772727273,-40.15154283796036L136.98454545454544,-78.13687748500277L137.24011363636362,135.05998365129744L137.49568181818182,52.04351041521345L137.75125,114.905738394601L138.00681818181818,-77.09442823137556L138.26238636363635,12.223358361380434L138.51795454545456,-59.06540836879185L138.77352272727273,-99.6794294520787L139.0290909090909,45.737532381330226L139.2846590909091,-73.759874659947L139.54022727272726,-47.06725668770926L139.79579545454544,44.571239613124305L140.05136363636365,70.78781550816127L140.30693181818182,154.00449946812222L140.5625,122.86846200125558L140.81806818181818,-102.51880959647042L141.07363636363635,51.635052141462054L141.32920454545453,109.69076817103794L141.58477272727274,-58.53967725481306L141.8403409090909,-96.6946842302595L142.0959090909091,127.85150246756417L142.35147727272727,-35.19070299421037L142.60704545454547,128.92345223563058L142.86261363636365,-36.401535906110496L143.1181818181818,40.05952156611852L143.37375,-94.0900889805385L143.62931818181818,39.37516924176896L143.88488636363638,-21.660152762276795L144.14045454545453,113.55949480329241L144.39602272727274,27.2992778839384L144.6515909090909,114.93915893554689L144.9071590909091,35.689877471923836L145.16272727272727,-82.52742292131694L145.41829545454544,-28.119851008823957L145.67386363636365,29.94357389177594L145.9294318181818,118.26920601981027L146.185,-58.865625915527346L146.44056818181818,65.93531655447825L146.69613636363638,6.789609374999998L146.95170454545453,-80.25524283272881L147.20727272727274,119.00543021065849L147.46284090909091,16.549355506896973L147.71840909090912,-82.03105342320032L147.97397727272727,112.51837280273438L148.22954545454544,-89.3189845929827L148.48511363636365,-88.43551247732978L148.7406818181818,130.7644062587193L148.99625,28.93167147363934L149.25181818181818,152.0930775669643L149.50738636363639,-53.27985050746372L149.76295454545453,138.8517759050642L150.01852272727274,47.29992144993372L150.27409090909092,-84.47824571881978L150.52965909090906,118.02385711669922L150.78522727272727,117.32265080043247L151.04079545454545,116.96170741489956L151.29636363636365,-72.46369628906248L151.5519318181818,60.05173102242607L151.8075,140.48198992047992L152.06306818181818,-47.505273350306936L152.3186363636364,59.540483943394264L152.57420454545453,-17.641978977748323L152.8297727272727,-94.08251900809148L153.08534090909092,151.4969480242048L153.3409090909091,113.77001874651228L153.59647727272727,-77.25425419398715L154.87431818181818,-39.09447450910295L155.12988636363636,117.32210292271205L155.38545454545454,76.00136587960381L155.6410227272727,125.47265598842077L155.89659090909092,-105.54828787667412L156.40772727272727,-98.0068590872628L156.66329545454545,77.33745058332171L156.91886363636365,-96.04998648507251L157.17443181818183,115.74769526890347L157.43,58.671322239467074L157.68556818181818,-94.45823965890065L157.94113636363636,55.38010116577148L158.19670454545454,-109.61119471958705L158.4522727272727,120.13636557442803L158.70784090909092,50.38077484130861L158.9634090909091,-103.3858453805106L159.21897727272727,11.651331580025811L159.47454545454545,-81.15605412074495L159.73011363636365,148.48597412109376L159.98568181818183,42.2714476449149L160.24124999999998,148.4338099888393L160.49681818181818,115.69638767787387L160.75238636363636,-74.19930345807757L161.00795454545454,105.52898097446986L161.26352272727271,125.80061867850168L161.51909090909092,-74.81223972865513L161.7746590909091,47.33324167524066L162.03022727272727,-77.1298936680385L162.28579545454545,124.33326324462891L162.54136363636363,16.373118291582387L162.79693181818183,138.1096022251674L163.05249999999998,103.24467812674386L163.3080681818182,-79.45425332205639L163.56363636363636,-106.4285498918806L163.81920454545457,120.79111031668526L164.07477272727272,27.339457793916978L164.33034090909092,-59.148778381347654L164.84147727272725,-82.71065329415461L165.09704545454545,16.123041049412308L165.35261363636363,129.01360512869698L165.60818181818183,-88.76146885463169L165.86374999999998,-82.16434204101563L166.1193181818182,135.28096357073102L166.37488636363636,114.74366690499443L166.63045454545457,21.30052963665554L166.88602272727272,143.13187382289343L167.14159090909092,141.30333578927176L167.3971590909091,54.48468184334891L167.65272727272725,-81.36585270472932L167.90829545454545,-106.30988420758928L168.16386363636363,31.866671954563685L168.41943181818183,-88.87950177873887L168.67499999999998,121.44248291015624L168.9305681818182,-96.12719094412671L169.18613636363636,-75.88060900006977L169.44170454545457,133.42360408238002L169.69727272727272,-50.73177154541017L169.9528409090909,44.73520938328335L170.2084090909091,-92.86837568010606L170.46397727272725,35.994978806631906L170.71954545454545,23.675173469270987L170.97511363636363,-98.03699236188618L171.48624999999998,-104.52259905133928L171.7418181818182,102.80416128976005L171.99738636363637,-82.91801343645369L172.25295454545454,122.09899475097657L172.50852272727272,21.96058025632587L172.7640909090909,-80.43591129847937L173.0196590909091,118.11812295096261L173.27522727272728,107.54065678187779L173.53079545454545,-69.85040444510324L173.78636363636363,132.2013197544643L174.04193181818184,35.58525018964494L174.29749999999999,34.35513448987689L174.55306818181816,-53.07332375662668L175.5753409090909,-115.77386221749441L175.8309090909091,123.47775604248048L176.08647727272728,-103.65983054024832L176.34204545454546,129.8506156703404L176.59761363636363,28.742117116110677L176.85318181818184,-92.60355782645092L177.36431818181816,-73.97635580880299L177.61988636363637,23.582984241076872L177.87545454545455,-66.66181784493583L178.13102272727272,120.71578870500838L178.3865909090909,41.808043409075054L178.6421590909091,-92.28831207275391L178.89772727272728,147.30263541085378L179.15329545454546,110.16904998779297L179.40886363636363,-91.32089120047436L179.6644318181818,51.73574203491211L179.92000000000002,142.39536411830358L180.17556818181816,23.48636110986982L180.43113636363637,139.0599385724749L180.68670454545455,-30.730623386927988L181.4534090909091,-108.45878409249445L181.70897727272728,122.72227124895369L181.96454545454543,55.47306289672851L182.22011363636364,-86.47265180315293L182.4756818181818,27.237592206001295L182.73125000000002,109.32735547746931L182.98681818181817,111.13144736153738L183.24238636363637,120.65011282784599L183.49795454545455,66.52023389543807L183.75352272727275,-122.74697204589842L184.0090909090909,128.46846679687502L184.26465909090908,20.274480301993236L184.52022727272728,141.72190665108818L184.77579545454543,-70.1754116821289L185.03136363636364,39.02784756251742L185.2869318181818,132.40440490722656L185.54250000000002,-84.2117533656529L185.79806818181817,53.4853297315325L186.05363636363637,143.70631203787667L186.30920454545455,-29.21474219185967L186.56477272727275,128.28918731689453L186.8203409090909,45.2698917388916L187.07590909090908,-101.2678272792271L187.33147727272728,124.49377598353794L187.58704545454543,25.622349576268874L187.84261363636364,-82.28227464948384L188.0981818181818,44.84124687194824L188.35375000000002,58.46493438720704L188.60931818181817,21.000923718043737L188.86488636363637,-76.86100917271207L189.12045454545455,-98.46445273263117L189.37602272727273,40.24678964342391L189.6315909090909,47.9306637464251L189.88715909090908,97.5583478655134L190.14272727272729,-79.38674861363L190.39829545454546,125.38042733328683L190.65386363636364,31.44862871442521L190.90943181818182,109.88211639404297L191.16500000000002,-65.44581481933596L191.93170454545455,-79.4605346243722L192.18727272727273,30.55195062364851L192.4428409090909,126.85390202113561L192.69840909090908,-101.51285980224611L192.9539772727273,-112.46823041643415L193.20954545454546,130.61539895193917L193.46511363636364,-59.16923505510604L193.72068181818182,52.35239962986539L193.97625,-115.25859479631697L194.23181818181817,130.90724029541016L194.48738636363635,121.81716182163782L194.74295454545455,127.06751259940012L194.99852272727273,139.06734649658205L195.2540909090909,137.02537536621094L195.50965909090908,-94.21575360979352L195.7652272727273,21.899869521004803L196.02079545454546,103.81359898158483L196.27636363636364,109.89526545933315L196.53193181818182,146.83933920724053L196.7875,-100.83063629150388L197.0430681818182,115.12695752825056L197.29863636363635,52.38905342102052L197.55420454545455,134.330658089774L197.80977272727273,33.551173128400535L198.0653409090909,115.9100677054269L198.32090909090908,-94.6121547154018L199.59875,-119.81309456961492L199.8543181818182,113.22856894356863L200.10988636363635,-15.156234610421336L200.36545454545455,62.37075079781668L200.62102272727273,145.0676724243164L200.87659090909094,59.04175702776227L201.13215909090908,-71.55460510253906L201.38772727272726,143.44035212925502L201.64329545454547,107.40174277169363L201.89886363636361,15.124156755719866L202.15443181818182,107.09388179234097L202.41,123.63683349609374L202.6655681818182,-64.25499101911274L203.17670454545456,-115.20427001953124L203.43227272727273,62.86088143484933L203.68784090909088,15.03664293561664L203.94340909090909,147.2868935721261L204.19897727272726,91.29838963099888L204.45454545454547,51.19113421848843L204.71011363636362,29.342670192718515L204.96568181818182,115.31114475795201L205.22125,-69.92402069091796L205.4768181818182,-40.44694152832034L205.73238636363635,110.59729745047433L205.98795454545456,115.11003505161831L206.24352272727273,33.97134421757289L206.4990909090909,45.86954969133649L206.7546590909091,135.81813838413782L207.01022727272726,128.436836504255L207.26579545454547,137.38989153180802L207.52136363636362,87.30075354439873L207.77693181818182,-29.84446204049246L208.0325,23.025993351255153L208.2880681818182,-85.45545122419082L208.54363636363635,128.52429630824497L208.79920454545453,24.28519612516675L209.05477272727273,92.6816111101423L209.3103409090909,-78.88395119803292L209.5659090909091,109.04142504010882L209.82147727272726,67.09609582083564L210.07704545454547,146.51427795410157L210.33261363636365,152.49315176827568L210.58818181818182,125.62553702218192L210.84375,119.92630462646486L211.09931818181818,93.2924484688895L211.35488636363635,-80.84039167131692L211.61045454545453,43.17694097246442L211.86602272727274,43.907217603411L212.1215909090909,34.54443106515066L212.3771590909091,124.45622706821986L212.63272727272727,-79.20089460100445L212.88829545454547,-84.1173331996373L213.14386363636365,127.8059205845424L213.3994318181818,133.0610710797991L213.655,51.26131465366909L213.91056818181818,146.37810333251954L214.16613636363638,-112.96809552873884L216.2106818181818,-96.34315508161274L216.46625,12.660550313677106L216.72181818181818,105.09501552036829L216.97738636363638,38.88651247297014L217.23295454545453,140.3054112461635L217.48852272727274,109.62079415457589L217.74409090909091,13.33024787357877L217.99965909090912,-87.40442975725449L218.25522727272727,34.91974370138985L218.51079545454544,-69.29505706787108L218.76636363636365,112.3753227015904L219.0219318181818,34.95546282087054L219.2775,126.75907287597656L219.53306818181818,19.871755935123986L219.78863636363639,53.86407528468541L220.04420454545453,12.437781110491073L220.29977272727274,-27.806731175013965L220.55534090909092,-22.374785940987692L220.81090909090906,34.90990505218505L221.06647727272727,38.71557558877129L221.32204545454545,35.2649192047119L221.57761363636365,-80.75388872419086L221.8331818181818,28.25183672904967L222.08875,-82.78024148123603L222.34431818181818,34.41739481244767L222.5998863636364,-110.4603897530692L222.85545454545453,124.38595210484097L223.1110227272727,14.164511310032424L223.36659090909092,-62.63026349748884L223.6221590909091,131.49614711216518L223.87772727272727,-68.64042035784041L224.13329545454545,102.87213671003069L224.38886363636365,38.233217484610435L224.6444318181818,116.97100590297154L224.9,-89.33955701555527L225.15556818181818,-71.18604544503347L225.41113636363636,112.02548348563057L225.66670454545454,-91.5078023856027L225.9222727272727,-122.77493695940291L226.17784090909092,11.721163804190496L226.4334090909091,121.01316284179688L226.68897727272727,-66.23022138323103L226.94454545454545,125.48184644426618L227.20011363636365,27.53882210459028L227.45568181818183,-58.418094700404595L227.71125,45.73871301923478L227.96681818181818,27.521251434598668L228.22238636363636,71.82915357317243L228.47795454545454,117.39106606619698L228.7335227272727,-78.33873570033484L228.98909090909092,122.83885345458984L229.2446590909091,51.04082859584264L229.50022727272727,109.2827304513114L229.75579545454545,-50.467331804547996L230.01136363636365,33.868964391435895L230.26693181818183,122.28375300816128L230.52249999999998,118.53533569335937L230.77806818181818,-106.07719822474888L231.03363636363636,115.08176147460938L231.28920454545454,131.86910522460937L231.54477272727271,140.34333055768695L231.80034090909092,-101.46912990025112L232.0559090909091,103.44145882742745L232.31147727272727,101.11478419712611L232.56704545454545,-89.08696223667692L232.82261363636363,20.197249317169195L233.07818181818183,-87.1019935389927L233.33374999999998,112.9711975969587L233.5893181818182,-55.210602460588746L234.35602272727272,-88.89411699567523L234.61159090909092,22.00997148105077L234.8671590909091,29.256767933709284L235.12272727272725,45.53813768659319L235.37829545454545,120.71707737513951L235.63386363636363,110.6147600882394L235.88943181818183,111.99842141287667L236.14499999999998,104.12214673723494L236.4005681818182,-58.934920872279605L236.65613636363636,132.41702152797154L236.91170454545457,14.207749279567167L237.16727272727272,131.07052328927176L237.42284090909092,13.513865040370405L237.6784090909091,132.5660519845145L237.93397727272725,111.5324012538365L238.18954545454545,26.016279444694533L238.44511363636363,-45.28612936837334L238.95624999999998,-76.6211621965681L239.2118181818182,102.63911891392299L239.46738636363636,-9.66617575509207L239.72295454545457,119.81449898856027L239.97852272727272,146.0878901890346L240.2340909090909,20.114331689562107L240.4896590909091,-101.22377328055245L241.00079545454545,-104.75909702845979L241.25636363636363,117.29372903006417L241.51193181818184,-68.17060363769531L241.76749999999998,98.01216809953962L242.0230681818182,45.97050194876533L242.27863636363637,22.615837428229185L242.53420454545454,-109.97884381975445L242.78977272727272,-99.10592494419643L243.0453409090909,47.12282383510046L243.3009090909091,-82.86904397147043L243.55647727272728,109.98250919886998L243.81204545454545,128.18428802490234L244.06761363636363,-84.9490887451172L244.57874999999999,-73.06147718157087L244.83431818181816,33.038081784929545L245.08988636363637,124.33481427873883L245.34545454545454,-50.28571419852119L245.60102272727272,24.25114258289338L245.8565909090909,-33.10648740495952L246.1121590909091,-0.36640865870882067L246.36772727272728,125.25926919119699L246.62329545454546,48.61188217163087L246.87886363636363,29.382536978040406L247.13443181818184,23.947815339905873L247.39000000000001,124.58208461216518L247.64556818181816,28.424173932756702L247.90113636363637,99.47224679129464L248.15670454545455,127.61516653878348L248.41227272727272,36.39542919158936L248.6678409090909,65.4350926208496L248.9234090909091,-18.949689788818347L249.17897727272728,-83.38046081542967L249.43454545454546,24.630081533023287L249.69011363636363,86.53976682390486L249.9456818181818,-27.076518205915193L250.20125000000002,113.64348214285715L250.45681818181816,-72.11197422572545L250.71238636363637,114.04835606166296L250.96795454545455,29.07575222151621L251.22352272727275,128.28761313302175L251.4790909090909,-103.83746638706754L251.7346590909091,-84.85084886823381L251.99022727272728,39.70345024108886L252.24579545454543,-70.9414682006836L252.50136363636364,-92.60715375627791L252.7569318181818,130.59436353410993L253.01250000000002,105.88172934395926L253.26806818181817,-72.29122283935544L253.52363636363637,108.31700722830637L253.77920454545455,-98.71153015136719L254.03477272727275,27.00023153850009L254.2903409090909,143.33633252825055L254.54590909090908,-77.6447212437221L254.80147727272728,32.02466715676445L255.05704545454543,-116.46066938127791L255.31261363636364,42.65473248073033L255.5681818181818,-96.14365042550224L255.82375000000002,110.03869367327009L256.07931818181817,-81.57686279296877L256.3348863636364,27.859946210043773L256.5904545454545,8.747101233346115L256.8460227272727,-74.12944519042969L257.10159090909093,41.13323843274799L257.3571590909091,116.30734850202288L257.6127272727273,-108.6560046386719L257.86829545454543,135.42539494105748L258.12386363636364,-86.54242518833706L258.3794318181818,34.83314429691859L258.635,53.130530678885336L258.8905681818182,22.736712709154403L259.1461363636364,132.9555698939732L259.40170454545455,24.22289697851454L259.6572727272727,-84.64373565673827L259.9128409090909,23.904409655162254L260.1684090909091,32.9088453401838L260.42397727272726,-103.43071733747212L260.67954545454546,29.593258176531094L260.93511363636367,-105.3274082728795L261.1906818181818,-112.15381033761162L261.44625,37.51895084381104L261.70181818181817,48.838107441493435L261.9573863636364,-85.6600411115374L262.2129545454545,118.25477600097656L262.4685227272727,-98.29615395682197L262.72409090909093,114.08214699881418L262.9796590909091,118.6802763584682L263.2352272727273,138.28148921421595L263.49079545454543,25.945872033323553L263.74636363636364,134.5688074166434L264.00193181818184,-28.496366468157078" style="fill: none;" fill="none"></path></g></g></g></g></g></g><g transform="translate(48, 177)" clip-path="url(#clip_1)"><clipPath id="clip_1"><rect width="281" height="23"></rect></clipPath><g><g><line x1="0" y1="0" x2="0" y2="5" style="visibility: inherit;" fill="rgb(0, 0, 0)" stroke="rgb(204, 204, 204)" stroke-width="1px"></line><line x1="25.556818181818183" y1="0" x2="25.556818181818183" y2="5" style="visibility: inherit;" fill="rgb(0, 0, 0)" stroke="rgb(204, 204, 204)" stroke-width="1px"></line><line x1="51.11363636363637" y1="0" x2="51.11363636363637" y2="5" style="visibility: inherit;" fill="rgb(0, 0, 0)" stroke="rgb(204, 204, 204)" stroke-width="1px"></line><line x1="76.67045454545455" y1="0" x2="76.67045454545455" y2="5" style="visibility: inherit;" fill="rgb(0, 0, 0)" stroke="rgb(204, 204, 204)" stroke-width="1px"></line><line x1="102.22727272727273" y1="0" x2="102.22727272727273" y2="5" style="visibility: inherit;" fill="rgb(0, 0, 0)" stroke="rgb(204, 204, 204)" stroke-width="1px"></line><line x1="127.7840909090909" y1="0" x2="127.7840909090909" y2="5" style="visibility: inherit;" fill="rgb(0, 0, 0)" stroke="rgb(204, 204, 204)" stroke-width="1px"></line><line x1="153.3409090909091" y1="0" x2="153.3409090909091" y2="5" style="visibility: inherit;" fill="rgb(0, 0, 0)" stroke="rgb(204, 204, 204)" stroke-width="1px"></line><line x1="178.89772727272728" y1="0" x2="178.89772727272728" y2="5" style="visibility: inherit;" fill="rgb(0, 0, 0)" stroke="rgb(204, 204, 204)" stroke-width="1px"></line><line x1="204.45454545454547" y1="0" x2="204.45454545454547" y2="5" style="visibility: inherit;" fill="rgb(0, 0, 0)" stroke="rgb(204, 204, 204)" stroke-width="1px"></line><line x1="230.01136363636365" y1="0" x2="230.01136363636365" y2="5" style="visibility: inherit;" fill="rgb(0, 0, 0)" stroke="rgb(204, 204, 204)" stroke-width="1px"></line><line x1="255.5681818181818" y1="0" x2="255.5681818181818" y2="5" style="visibility: inherit;" fill="rgb(0, 0, 0)" stroke="rgb(204, 204, 204)" stroke-width="1px"></line><line x1="281.125" y1="0" x2="281.125" y2="5" style="visibility: inherit;" fill="rgb(0, 0, 0)" stroke="rgb(204, 204, 204)" stroke-width="1px"></line></g><g transform="translate(0, 8)"><text x="0" y="0" dx="0em" dy="0.95em" style="text-anchor: middle; visibility: hidden; font-family: &quot;Helvetica Neue&quot;, sans-serif; font-size: 12px; font-weight: 200;" fill="rgb(50, 49, 63)" stroke="none" stroke-width="1px">-100</text><text x="25.556818181818183" y="0" dx="0em" dy="0.95em" style="text-anchor: middle; visibility: inherit; font-family: &quot;Helvetica Neue&quot;, sans-serif; font-size: 12px; font-weight: 200;" fill="rgb(50, 49, 63)" stroke="none" stroke-width="1px">0</text><text x="51.11363636363637" y="0" dx="0em" dy="0.95em" style="text-anchor: middle; visibility: inherit; font-family: &quot;Helvetica Neue&quot;, sans-serif; font-size: 12px; font-weight: 200;" fill="rgb(50, 49, 63)" stroke="none" stroke-width="1px">100</text><text x="76.67045454545455" y="0" dx="0em" dy="0.95em" style="text-anchor: middle; visibility: inherit; font-family: &quot;Helvetica Neue&quot;, sans-serif; font-size: 12px; font-weight: 200;" fill="rgb(50, 49, 63)" stroke="none" stroke-width="1px">200</text><text x="102.22727272727273" y="0" dx="0em" dy="0.95em" style="text-anchor: middle; visibility: inherit; font-family: &quot;Helvetica Neue&quot;, sans-serif; font-size: 12px; font-weight: 200;" fill="rgb(50, 49, 63)" stroke="none" stroke-width="1px">300</text><text x="127.7840909090909" y="0" dx="0em" dy="0.95em" style="text-anchor: middle; visibility: inherit; font-family: &quot;Helvetica Neue&quot;, sans-serif; font-size: 12px; font-weight: 200;" fill="rgb(50, 49, 63)" stroke="none" stroke-width="1px">400</text><text x="153.3409090909091" y="0" dx="0em" dy="0.95em" style="text-anchor: middle; visibility: inherit; font-family: &quot;Helvetica Neue&quot;, sans-serif; font-size: 12px; font-weight: 200;" fill="rgb(50, 49, 63)" stroke="none" stroke-width="1px">500</text><text x="178.89772727272728" y="0" dx="0em" dy="0.95em" style="text-anchor: middle; visibility: inherit; font-family: &quot;Helvetica Neue&quot;, sans-serif; font-size: 12px; font-weight: 200;" fill="rgb(50, 49, 63)" stroke="none" stroke-width="1px">600</text><text x="204.45454545454547" y="0" dx="0em" dy="0.95em" style="text-anchor: middle; visibility: inherit; font-family: &quot;Helvetica Neue&quot;, sans-serif; font-size: 12px; font-weight: 200;" fill="rgb(50, 49, 63)" stroke="none" stroke-width="1px">700</text><text x="230.01136363636365" y="0" dx="0em" dy="0.95em" style="text-anchor: middle; visibility: inherit; font-family: &quot;Helvetica Neue&quot;, sans-serif; font-size: 12px; font-weight: 200;" fill="rgb(50, 49, 63)" stroke="none" stroke-width="1px">800</text><text x="255.5681818181818" y="0" dx="0em" dy="0.95em" style="text-anchor: middle; visibility: inherit; font-family: &quot;Helvetica Neue&quot;, sans-serif; font-size: 12px; font-weight: 200;" fill="rgb(50, 49, 63)" stroke="none" stroke-width="1px">900</text><text x="281.125" y="0" dx="0em" dy="0.95em" style="text-anchor: middle; visibility: hidden; font-family: &quot;Helvetica Neue&quot;, sans-serif; font-size: 12px; font-weight: 200;" fill="rgb(50, 49, 63)" stroke="none" stroke-width="1px">1k</text></g><line x1="0" y1="0" x2="281.125" y2="0" fill="rgb(0, 0, 0)" stroke="rgb(204, 204, 204)" stroke-width="1px"></line></g></g></g></g></svg>